<?xml version="1.0" standalone="no"?>
<!DOCTYPE svg PUBLIC "-//W3C//DTD SVG 20010904//EN"
 "http://www.w3.org/TR/2001/REC-SVG-20010904/DTD/svg10.dtd">
<svg version="1.0" xmlns="http://www.w3.org/2000/svg"
 width="512.000000pt" height="512.000000pt" viewBox="0 0 512.000000 512.000000"
 preserveAspectRatio="xMidYMid meet">
<metadata>
Created by potrace 1.11, written by Peter Selinger 2001-2013
</metadata>
<g transform="translate(0.000000,512.000000) scale(0.100000,-0.100000)"
fill="#000000" stroke="none">
<path d="M0 2560 l0 -2560 2560 0 2560 0 0 2560 0 2560 -2560 0 -2560 0 0
-2560z m2566 1629 c11 -11 34 -19 51 -19 17 0 37 -8 47 -19 14 -16 23 -18 42
-11 30 12 67 -1 88 -32 19 -27 20 -45 2 -79 -11 -22 -11 -28 5 -48 11 -13 19
-29 19 -36 0 -7 23 -22 51 -33 103 -43 184 -111 444 -371 244 -246 259 -262
259 -297 0 -25 -7 -42 -20 -53 -14 -11 -21 -28 -21 -50 0 -22 -7 -40 -19 -50
-16 -12 -19 -25 -16 -57 3 -35 0 -44 -23 -63 -32 -24 -63 -27 -90 -7 -17 12
-22 12 -44 -5 -13 -10 -29 -19 -36 -19 -7 0 -23 -24 -35 -52 -47 -110 -107
-182 -368 -442 -246 -245 -263 -260 -298 -260 -24 0 -42 7 -53 20 -10 11 -25
18 -40 16 -13 -2 -36 5 -51 17 -21 15 -37 19 -63 14 -65 -10 -109 61 -71 115
14 21 14 24 -5 48 -12 15 -21 32 -21 38 -1 6 -42 31 -93 55 -91 44 -96 48
-380 330 -196 195 -287 293 -287 307 0 12 10 34 22 50 14 17 21 38 19 56 -1
18 5 35 21 51 19 19 21 28 14 49 -20 56 50 111 106 84 27 -14 31 -13 49 5 10
10 27 19 37 19 12 1 30 29 61 93 43 91 47 96 320 370 152 154 285 283 296 287
25 11 54 3 81 -21z m1001 -1869 c62 -37 52 -141 -17 -188 -48 -33 -146 -28
-185 8 -49 46 -27 150 39 183 45 23 124 21 163 -3z m-2987 -142 c-1 -14 -17
-91 -26 -120 -5 -15 5 -18 88 -20 l94 -3 -20 -92 -19 -93 -93 0 c-89 0 -94 -1
-99 -22 -34 -144 -55 -253 -55 -282 0 -29 4 -37 24 -42 14 -3 48 1 76 9 l51
15 -3 -96 -3 -95 -40 -15 c-60 -22 -250 -22 -291 0 -79 43 -90 120 -45 339 18
85 34 162 37 172 5 15 -2 17 -45 17 -28 0 -51 3 -51 8 1 4 7 32 14 62 l12 55
71 29 c71 29 72 30 115 107 l43 79 83 0 c59 0 82 -3 82 -12z m2490 0 c-1 -14
-17 -91 -26 -120 -5 -15 5 -18 88 -20 l94 -3 -20 -92 -19 -93 -93 0 c-89 0
-94 -1 -99 -22 -34 -144 -55 -253 -55 -282 0 -29 4 -37 24 -42 14 -3 48 1 76
9 l51 15 -3 -96 -3 -95 -40 -15 c-60 -22 -250 -22 -291 0 -79 43 -90 120 -45
339 18 85 34 162 37 172 5 15 -2 17 -45 17 -28 0 -51 3 -51 8 1 4 7 32 14 62
l12 55 71 29 c71 29 72 30 115 107 l43 79 83 0 c59 0 82 -3 82 -12z m-1770
-138 c0 -8 -24 -124 -45 -217 -4 -19 -10 -21 -62 -16 -125 10 -160 -40 -219
-315 l-39 -182 -126 0 -125 0 76 363 77 362 101 3 102 3 -6 -63 -7 -63 30 40
c38 51 54 64 100 81 45 16 143 18 143 4z m376 -11 c24 -11 52 -35 63 -52 l20
-32 16 37 c8 21 15 42 15 48 0 6 39 10 104 10 l104 0 -36 -167 c-19 -93 -53
-256 -76 -363 l-41 -195 -103 -3 -102 -3 6 43 7 43 -31 -33 c-56 -60 -151 -79
-229 -47 -73 31 -109 87 -124 193 -24 167 58 405 167 489 73 55 167 68 240 32z
m889 -4 c28 -9 53 -20 58 -24 4 -4 -9 -48 -30 -97 -20 -49 -37 -90 -38 -91 0
-1 -25 7 -55 17 -73 25 -110 25 -150 -2 -87 -59 -124 -258 -59 -311 31 -25 98
-18 175 17 l54 25 0 -103 0 -104 -62 -23 c-88 -34 -253 -35 -313 -2 -111 60
-157 176 -135 346 23 184 136 329 287 367 55 14 210 5 268 -15z m1509 11 c68
-21 114 -60 145 -125 23 -49 26 -68 25 -156 -3 -259 -149 -437 -373 -452 -148
-10 -237 31 -287 132 -58 120 -28 332 68 467 81 116 277 178 422 134z m822 -5
c119 -54 128 -152 50 -516 l-42 -200 -128 -3 c-118 -2 -127 -1 -122 15 6 21
81 381 90 436 9 46 -13 87 -46 87 -11 0 -35 -15 -53 -34 -37 -39 -53 -93 -107
-348 l-33 -158 -125 0 -126 0 76 363 77 362 102 3 103 3 -7 -53 -7 -53 38 43
c63 70 173 92 260 53z m-1339 -11 c-3 -11 -38 -176 -78 -365 l-73 -345 -126 0
-126 0 77 363 c43 199 78 363 78 365 1 1 58 2 127 2 122 0 126 -1 121 -20z"/>
<path d="M2230 3903 c-265 -268 -308 -321 -347 -426 l-17 -47 139 -140 c105
-105 144 -137 154 -131 12 8 8 17 -22 50 -43 47 -48 90 -17 121 35 35 69 26
132 -37 54 -54 58 -56 86 -44 44 18 344 324 336 344 -13 34 -36 27 -93 -28
l-58 -56 -13 30 c-6 16 -21 38 -31 47 -19 17 -16 21 137 175 157 157 178 190
129 197 -14 2 -62 -39 -165 -143 -131 -131 -180 -167 -180 -133 0 6 82 94 182
195 157 157 181 186 172 201 -7 9 -20 16 -30 14 -11 -2 -98 -82 -194 -178 -96
-96 -181 -174 -188 -174 -30 0 -2 35 149 186 117 117 160 167 156 178 -17 44
-38 29 -202 -134 -122 -122 -167 -161 -180 -156 -14 5 5 30 93 124 61 64 126
133 146 151 46 45 45 80 -2 81 -4 0 -126 -120 -272 -267z"/>
<path d="M2659 3746 c-75 -77 -134 -147 -132 -154 3 -8 21 1 53 28 55 46 81
50 115 15 39 -38 32 -69 -30 -134 -30 -32 -55 -66 -55 -76 0 -24 318 -345 341
-345 10 0 21 10 24 21 6 17 -5 33 -51 80 -35 36 -52 59 -43 59 9 0 33 12 54
26 l38 26 159 -159 c133 -132 161 -156 175 -147 9 6 19 16 21 23 2 7 -66 83
-152 170 -86 86 -156 160 -156 164 0 4 10 7 23 7 16 0 74 -51 197 -175 96 -96
182 -175 191 -175 21 0 32 26 20 48 -6 9 -87 93 -180 187 -94 93 -171 175
-171 182 0 31 35 3 185 -147 114 -115 166 -160 180 -158 50 7 28 40 -136 204
-130 130 -161 166 -151 176 10 10 42 -17 156 -131 116 -115 148 -142 167 -139
13 1 25 10 27 18 2 14 -483 508 -548 558 -29 22 -136 77 -165 85 -16 4 -50
-26 -156 -137z"/>
<path d="M1797 3403 c-19 -18 5 -50 145 -190 121 -121 150 -155 140 -165 -10
-10 -50 25 -196 171 -131 130 -189 182 -202 179 -48 -9 -26 -40 155 -222 100
-100 181 -188 181 -194 0 -34 -50 3 -197 149 -139 138 -165 160 -178 149 -8
-7 -15 -20 -15 -29 0 -9 70 -86 155 -171 85 -85 155 -160 155 -167 0 -31 -34
-5 -165 127 -100 100 -146 140 -160 138 -54 -8 -28 -41 247 -314 262 -260 276
-272 361 -314 l89 -43 139 139 c122 121 156 164 133 164 -4 0 -24 -16 -45 -35
-66 -59 -139 -41 -139 34 0 26 12 45 56 91 55 58 55 59 40 87 -8 15 -84 97
-169 182 -110 109 -160 152 -171 148 -29 -11 -17 -41 40 -98 l56 -56 -33 -12
c-18 -6 -43 -20 -54 -31 l-21 -19 -154 154 c-142 142 -175 167 -193 148z"/>
<path d="M2464 3301 l-100 -99 81 -83 c45 -46 87 -93 93 -104 10 -18 18 -13
105 73 52 50 100 92 107 92 8 0 -27 42 -76 93 -49 50 -93 100 -99 109 -9 15
-24 4 -111 -81z"/>
<path d="M2950 3217 c0 -7 16 -28 35 -47 41 -39 46 -79 15 -110 -37 -37 -78
-27 -141 36 -48 47 -60 55 -80 49 -13 -4 -95 -78 -182 -164 -115 -113 -157
-161 -155 -176 6 -38 38 -29 95 27 33 31 57 48 60 41 2 -7 16 -29 30 -49 l25
-37 -158 -158 c-157 -158 -171 -179 -128 -196 11 -4 59 37 168 146 83 83 157
151 164 151 36 0 -5 -52 -163 -210 -126 -126 -175 -181 -173 -195 7 -51 40
-28 224 156 145 145 186 181 196 171 10 -10 -22 -47 -151 -176 -167 -169 -186
-198 -131 -204 22 -2 50 22 174 153 135 142 186 181 186 143 0 -6 -63 -75
-140 -153 -143 -144 -169 -185 -117 -185 17 0 95 73 294 273 259 261 272 276
313 360 l44 88 -139 139 c-132 132 -165 158 -165 127z"/>
<path d="M1596 1818 c-82 -82 -102 -305 -30 -316 57 -8 121 104 130 228 9 113
-36 152 -100 88z"/>
<path d="M3885 1827 c-40 -40 -65 -114 -72 -214 -9 -114 30 -153 96 -98 61 52
106 261 67 320 -22 34 -51 32 -91 -8z"/>
</g>
</svg>
