<svg id="Layer_1" data-name="Layer 1" xmlns="http://www.w3.org/2000/svg" viewBox="0 0 439.77 301.52">
<defs>
    <style>
        .cls-1,.cls-3{fill:#fff;}
        .cls-2{fill:#2374ac;}
        .cls-3{font-size:118.18px;font-family:'Open Sans';font-weight:800;font-style:italic;letter-spacing:.06em;}
        <!-- .cls-4{letter-spacing:-0.1em;}
        .cls-5{letter-spacing:-0.1em;}
        .cls-6{letter-spacing:-0.1em;}
        .cls-7{letter-spacing:-0.1em;}
        .cls-8{letter-spacing:-0.1em;}
        .cls-9{letter-spacing:-0.1em;}
        .cla-1{letter-spacing:-0.1em;}
        .cla-2{letter-spacing:-0.1em;} -->
    </style>
</defs>
<title>traction-logo-white</title>
<path class="cls-1" d="M229.88,196.62a7.1,7.1,0,0,1-9.46.4,5.86,5.86,0,0,1-1.61-2.62,6.69,6.69,0,0,1-7.84-1.2,8.29,8.29,0,0,1-1.61-2.42,6.7,6.7,0,1,1-8.86-10.06l1.21-1.21a8.77,8.77,0,0,1-2.22-1.61,6.59,6.59,0,0,1-2-4.63v-.6a64.52,64.52,0,0,1-12.15-5.51,69.21,69.21,0,0,1-10.79-7.77c-1.21-1.11-12.28-12.18-23-23l-21.24-21.31a6.69,6.69,0,0,1,0-9.46,7.46,7.46,0,0,1,2.42-1.61,6.29,6.29,0,0,1-.81-3.22,7,7,0,0,1,2-4.83,6.51,6.51,0,0,1,2.41-1.61,6.5,6.5,0,0,1-1.61-4.22,7,7,0,0,1,2-4.63,6.68,6.68,0,0,1,9.46,0l1.21,1.21c1.41-5,5.84-4.23,6.64-4.23a69.87,69.87,0,0,1,12.48-21.94l.2-.2c2.62-3,45.08-45.08,45.08-45.08a6.68,6.68,0,0,1,9.46,0,7.16,7.16,0,0,1,1.61,2.62,6.7,6.7,0,0,1,7.85,1.2,8.49,8.49,0,0,1,1.61,2.42,6.53,6.53,0,0,1,9.46.6,6.69,6.69,0,0,1-.61,9.46L240,32.8a4.77,4.77,0,0,1,2.41,1.41,5.79,5.79,0,0,1,2,5,69.68,69.68,0,0,1,21.94,12.48h.2c3,2.61,45.08,45.08,45.08,45.08a7.72,7.72,0,0,1,1.61,2.82,6.67,6.67,0,0,1-4.23,8.45,6.71,6.71,0,0,1-1.2,7.85,8.71,8.71,0,0,1-2.42,1.61,6.76,6.76,0,0,1-.6,8.85,6.68,6.68,0,0,1-9.46,0l-1.21-1.21a6.54,6.54,0,0,1-6.24,4.23h-.4a66.51,66.51,0,0,1-5.51,12.16,69,69,0,0,1-7.77,10.78C272.15,154.76,229.88,196.62,229.88,196.62Zm-6.64-2.82a2.54,2.54,0,0,0,3.62,0l44.08-44.07A65.8,65.8,0,0,0,283.62,128l-25.56-25.36a8.77,8.77,0,0,1-2.22,1.61l5.24,5.24a6.69,6.69,0,1,1-9.46,9.46l-8.45-8.46a13.51,13.51,0,0,0-6.65,3.63l-16.24,16.12-9.52,9.43a2.71,2.71,0,0,0,3.83,3.83l9.46-9.46,1,3a13.53,13.53,0,0,0,3.22,5l1.41,1.41-27.77,27.77a2.7,2.7,0,1,0,3.82,3.82l26.37-26.36a1.95,1.95,0,0,1,2.81,0,1.94,1.94,0,0,1,0,2.82l-31.59,32a2.7,2.7,0,0,0,3.82,3.82l31.8-31.8a2,2,0,0,1,1.41-.6,2,2,0,0,1,1.41.6,2,2,0,0,1,0,2.82l-28,28a2.71,2.71,0,0,0,3.83,3.83l27.77-28A2,2,0,0,1,248.2,165l-25,25A2.81,2.81,0,0,0,223.24,193.8Zm-24.35-25.16,25.36-25.35a8.77,8.77,0,0,1-1.61-2.22l-5.23,5.24a6.69,6.69,0,0,1-9.46-9.46l8.45-8.46a14.38,14.38,0,0,0-3.62-6.64l-16.3-16.3L187,96a2.57,2.57,0,0,0-3.63,0,2.64,2.64,0,0,0-.2,3.83l9.46,9.46-3,1.2a13.53,13.53,0,0,0-5,3.22l-1.21,1.41L155.62,87.34a2.75,2.75,0,0,0-3.82,0,2.79,2.79,0,0,0,0,3.82L178,117.53a2.12,2.12,0,0,1,0,2.61,1.94,1.94,0,0,1-2.82.2L143.35,88.55a2.7,2.7,0,0,0-3.83,3.82l32,32a2,2,0,0,1-3,2.62L140.73,99a2.7,2.7,0,0,0-3.82,3.83l27.77,27.77a2,2,0,0,1-2.82,2.82l-25-25a2.7,2.7,0,1,0-3.83,3.82l44.08,44.08A64.54,64.54,0,0,0,198.89,168.64ZM286.23,125a2.71,2.71,0,1,0,3.63-4L263.49,94.58a2.11,2.11,0,0,1,0-2.81,1.94,1.94,0,0,1,2.82,0l31.8,31.79a2.72,2.72,0,0,0,3.82,0,2.79,2.79,0,0,0,0-3.82l-31.8-31.8a2.4,2.4,0,0,1-.64-1.53,1.6,1.6,0,0,1,.64-1.28,1.94,1.94,0,0,1,2.82,0l28,28.17.21.2a2.7,2.7,0,1,0,3.62-4L277,81.5a2,2,0,1,1,2.81-2.81l25,25a3,3,0,0,0,3.62,0,2.79,2.79,0,0,0,.2-3.82L263.49,54.94a58.73,58.73,0,0,0-20.73-11.68c0,.21-25.35,25.56-25.35,25.56A9.29,9.29,0,0,1,219,71l5.23-5.23a6.69,6.69,0,1,1,9.46,9.45l-8.46,8.46a14.49,14.49,0,0,0,3.63,6.64l16.1,16.1,9.46,9.46a2.7,2.7,0,1,0,3.82-3.83l-9.46-9.46,3-1a13.53,13.53,0,0,0,5-3.22L258.26,97Zm-66.61.2,13.89-13.88a16,16,0,0,1,6.23-4L225.86,93.38a16,16,0,0,1-4-6.24L208,101a15.89,15.89,0,0,1-6.24,4l13.88,13.89A15.85,15.85,0,0,1,219.62,125.17Zm-36.23-15.09a9,9,0,0,1,2.22-1.61l-5.23-5.23a6.56,6.56,0,0,1,0-9.06,6.49,6.49,0,0,1,9.45-.4l8.46,8.45a13.78,13.78,0,0,0,6.64-3.82l16.3-16.3,9.46-9.46a3,3,0,0,0,0-3.62,2.81,2.81,0,0,0-3.83-.21l-9.45,9.46-1-3a13.41,13.41,0,0,0-3.22-5l-1.41-1.41,27.77-27.77a2.79,2.79,0,0,0,0-3.82,3,3,0,0,0-3.82,0L209.36,63.39a2,2,0,1,1-2.82-2.82l31.8-31.8A2.7,2.7,0,1,0,234.51,25l-31.59,31.8a2,2,0,1,1-2.82-2.82l28-28a2.55,2.55,0,0,0,0-3.63,2.63,2.63,0,0,0-3.82-.2l-28,28a2,2,0,0,1-2.81,0,1.89,1.89,0,0,1,0-2.82l24.95-25.16a3,3,0,0,0,0-3.62,2.78,2.78,0,0,0-3.82-.2L169.71,63.39a62.84,62.84,0,0,0-11.87,21.33C158,84.72,183.39,110.08,183.39,110.08Z" transform="translate(-6.23 -13.33)"/><path class="cls-2" d="M226.86,193.8a2.54,2.54,0,0,1-3.62,0,2.81,2.81,0,0,1,0-3.82l25-25a2,2,0,0,0-2.82-2.82l-27.77,28a2.71,2.71,0,0,1-3.83-3.83l28-28a2,2,0,0,0,0-2.82,2,2,0,0,0-1.41-.6,2,2,0,0,0-1.41.6l-31.8,31.8a2.7,2.7,0,0,1-3.82-3.82l31.59-32a1.94,1.94,0,0,0,0-2.82,1.95,1.95,0,0,0-2.81,0l-26.37,26.36a2.7,2.7,0,1,1-3.82-3.82l27.77-27.77-1.41-1.41a13.53,13.53,0,0,1-3.22-5l-1-3-3.77-3.8,16.24-16.12a13.51,13.51,0,0,1,6.65-3.63l8.45,8.46a6.69,6.69,0,1,0,9.46-9.46l-5.24-5.24a8.77,8.77,0,0,0,2.22-1.61L283.62,128a65.8,65.8,0,0,1-12.68,21.74Z" transform="translate(-6.23 -13.33)"/>
<path class="cls-2" d="M224.25,143.29l-25.36,25.35a64.54,64.54,0,0,1-21.73-12.27l-44.08-44.08a2.7,2.7,0,1,1,3.83-3.82l25,25a2,2,0,0,0,2.82-2.82l-27.77-27.77A2.7,2.7,0,0,1,140.73,99l27.77,28a2,2,0,0,0,3-2.62l-32-32a2.7,2.7,0,0,1,3.83-3.82l31.79,31.79a1.94,1.94,0,0,0,2.82-.2,2.12,2.12,0,0,0,0-2.61L151.8,91.16a2.79,2.79,0,0,1,0-3.82,2.75,2.75,0,0,1,3.82,0l27.77,27.77,1.21-1.41a13.53,13.53,0,0,1,5-3.22l3-1.2,3.83-3.83,16.3,16.3a14.38,14.38,0,0,1,3.62,6.64L208,136.85a6.69,6.69,0,0,0,9.46,9.46l5.23-5.24A8.77,8.77,0,0,0,224.25,143.29Z" transform="translate(-6.23 -13.33)"/>
<path class="cls-2" d="M214.59,143.49a2.71,2.71,0,0,1-3.83-3.83l9.52-9.43,3.77,3.8Z" transform="translate(-6.23 -13.33)"/>
<path class="cls-2" d="M290.06,124.77a2.8,2.8,0,0,1-3.83.2l-28-28-1.41,1.41a13.53,13.53,0,0,1-5,3.22l-3,1L245,106.46l-16.1-16.1a14.49,14.49,0,0,1-3.63-6.64l8.46-8.46a6.69,6.69,0,1,0-9.46-9.45L219,71a9.29,9.29,0,0,0-1.61-2.22s25.35-25.35,25.35-25.56a58.73,58.73,0,0,1,20.73,11.68l45.08,44.88a2.79,2.79,0,0,1-.2,3.82,3,3,0,0,1-3.62,0l-25-25A2,2,0,1,0,277,81.5l27.77,28a2.7,2.7,0,1,1-3.62,4l-.21-.2L273,85.13a1.94,1.94,0,0,0-2.82,0,1.6,1.6,0,0,0-.64,1.28,2.4,2.4,0,0,0,.64,1.53l31.8,31.8a2.79,2.79,0,0,1,0,3.82,2.72,2.72,0,0,1-3.82,0l-31.8-31.79a1.94,1.94,0,0,0-2.82,0,2.11,2.11,0,0,0,0,2.81L289.86,121A2.8,2.8,0,0,1,290.06,124.77Z" transform="translate(-6.23 -13.33)"/>
<path class="cls-2" d="M258.26,115.92a2.81,2.81,0,0,1-3.82,0L245,106.46l3.82-3.83,9.46,9.46A2.8,2.8,0,0,1,258.26,115.92Z" transform="translate(-6.23 -13.33)"/>
<path class="cls-2" d="M192.65,109.28l-9.46-9.46a2.64,2.64,0,0,1,.2-3.83A2.57,2.57,0,0,1,187,96l9.46,9.46Z" transform="translate(-6.23 -13.33)"/>
<path class="cls-2" d="M185.61,108.47a9,9,0,0,0-2.22,1.61S158,84.72,157.84,84.72a62.84,62.84,0,0,1,11.87-21.33l44.88-45.08a2.78,2.78,0,0,1,3.82.2,3,3,0,0,1,0,3.62L193.46,47.29a1.89,1.89,0,0,0,0,2.82,2,2,0,0,0,2.81,0l28-28a2.63,2.63,0,0,1,3.82.2,2.55,2.55,0,0,1,0,3.63l-28,28a2,2,0,1,0,2.82,2.82L234.51,25a2.7,2.7,0,1,1,3.83,3.82l-31.8,31.8a2,2,0,1,0,2.82,2.82l26.36-26.16a3,3,0,0,1,3.82,0,2.79,2.79,0,0,1,0,3.82L211.77,68.82l1.41,1.41a13.41,13.41,0,0,1,3.22,5l1,3,3.82,3.83-16.3,16.3a13.78,13.78,0,0,1-6.64,3.82l-8.46-8.45a6.49,6.49,0,0,0-9.45.4,6.56,6.56,0,0,0,0,9.06Z" transform="translate(-6.23 -13.33)"/>
<path class="cls-2" d="M221.23,82.11l-3.82-3.83,9.45-9.46a2.81,2.81,0,0,1,3.83.21,3,3,0,0,1,0,3.62Z" transform="translate(-6.23 -13.33)"/>
<text class="cls-3" transform="translate(0 265)">traction</text>
    <!-- <tspan class="cls-4">t</tspan>
    <tspan class="cls-5">r</tspan>
    <tspan class="cls-6">a</tspan>
    <tspan class="cls-7">c</tspan>
    <tspan class="cls-8">t</tspan>
    <tspan class="cls-9">i</tspan>
    <tspan class="cla-1">o</tspan>
    <tspan class="cla-2">n</tspan> -->
<!-- </text> -->
</svg>