<?xml version="1.0" encoding="utf-8"?>
<!-- Generator: Adobe Illustrator 22.1.0, SVG Export Plug-In . SVG Version: 6.00 Build 0)  -->
<svg version="1.1" id="Layer_1" xmlns="http://www.w3.org/2000/svg" xmlns:xlink="http://www.w3.org/1999/xlink" x="0px" y="0px"
	 viewBox="0 0 453 293.9" style="enable-background:new 0 0 453 293.9;" xml:space="preserve">
<style type="text/css">
	.st0{fill:#878784;}
	.st1{fill:#FFFFFF;}
	.st2{fill:#2374AC;}
	.st3{font-family:'OpenSans-ExtraboldItalic';}
	.st4{font-size:120.2253px;}
	.st5{letter-spacing:-5;}
	.st6{letter-spacing:-2;}
	.st7{letter-spacing:-6;}
</style>
<rect x="-8.7" y="9" class="st0" width="491" height="344"/>
<g id="XMLID_2_">
	<g>
		<path class="st1" d="M235.4,192.6c-2.6,2.6-6.6,2.6-9.5,0.4c-0.8-0.6-1.2-1.6-1.6-2.6c-2.6,1.4-5.8,0.8-7.8-1.2
			c-0.8-0.8-1.2-1.6-1.6-2.4c-2.8,2.4-7,2.2-9.5-0.6c-2.4-2.8-2.2-7,0.6-9.5l1.2-1.2c-0.8-0.4-1.6-1-2.2-1.6c-1.2-1.2-2-2.8-2-4.6
			c0-0.2,0-0.4,0-0.6c-4.2-1.4-8.3-3.3-12.2-5.5c-3.8-2.2-7.5-4.9-10.8-7.8c-1.2-1.1-12.3-12.2-23-23
			c-10.8-10.8-21.2-21.3-21.2-21.3c-2.6-2.6-2.6-6.8,0-9.5c0.6-0.6,1.4-1.2,2.4-1.6c-0.6-1-0.8-2.2-0.8-3.2c0-1.8,0.8-3.6,2-4.8
			c0.6-0.8,1.6-1.2,2.4-1.6c-1-1.2-1.6-2.6-1.6-4.2s0.8-3.4,2-4.6c2.6-2.6,6.8-2.6,9.5,0l1.2,1.2c1.4-5,5.8-4.2,6.6-4.2
			c2.8-8.1,7-15.5,12.5-21.9l0.2-0.2c2.6-3,45.1-45.1,45.1-45.1c2.6-2.6,6.8-2.6,9.5,0c0.8,0.8,1.2,1.6,1.6,2.6
			c2.6-1.4,5.8-0.8,7.8,1.2c0.8,0.8,1.2,1.6,1.6,2.4c2.6-2.6,7-2.2,9.5,0.6s2.2,7-0.6,9.5l-1.2,1.2c1,0.2,1.8,0.8,2.4,1.4
			c1.4,1.2,2.2,3,2,5c8.1,2.8,15.5,7,21.9,12.5h0.2c3,2.6,45.1,45.1,45.1,45.1c0.8,0.8,1.2,1.8,1.6,2.8c1.2,3.6-0.8,7.2-4.2,8.5
			c1.4,2.6,0.8,5.8-1.2,7.8c-0.8,0.8-1.6,1.2-2.4,1.6c2,2.6,1.8,6.4-0.6,8.9c-2.6,2.6-6.8,2.6-9.5,0l-1.2-1.2
			c-1,2.6-3.4,4.2-6.2,4.2c0,0-0.2,0-0.4,0c-1.4,4.2-3.3,8.3-5.5,12.2c-2.2,3.8-4.9,7.5-7.8,10.8
			C277.6,150.8,235.4,192.6,235.4,192.6z M228.7,189.8c1,1,2.6,1,3.6,0l44.1-44.1c5.6-6.4,9.9-13.7,12.7-21.7
			c-0.2-0.2-25.6-25.4-25.6-25.4c-0.6,0.6-1.4,1.2-2.2,1.6l5.2,5.2c2.6,2.6,2.6,6.8,0,9.5s-6.8,2.6-9.5,0l-8.5-8.5
			c-2.6,0.6-4.8,1.8-6.6,3.6l-16.2,16.1l-9.5,9.4c-1,1-1,2.8,0,3.8s2.8,1,3.8,0l9.5-9.5l1,3c0.6,1.8,1.8,3.6,3.2,5l1.4,1.4
			L207.3,167c-1,1-1,2.8,0,3.8s2.8,1,3.8,0l26.4-26.4c0.4-0.4,0.9-0.6,1.4-0.6s1,0.2,1.4,0.6c0.8,0.8,0.8,2,0,2.8l-31.6,32
			c-1,1-1,2.8,0,3.8s2.8,1,3.8,0l31.8-31.8c0.4-0.4,0.9-0.6,1.4-0.6s1,0.2,1.4,0.6c0.8,0.8,0.8,2,0,2.8l-28,28c-1,1-1,2.8,0,3.8
			s2.8,1,3.8,0l27.8-28c0.8-0.8,2-0.8,2.8,0s0.8,2,0,2.8l-25,25C227.7,187,227.7,188.8,228.7,189.8z M204.4,164.6l25.4-25.4
			c-0.6-0.6-1.2-1.4-1.6-2.2l-5.2,5.2c-2.6,2.6-6.8,2.6-9.5,0c-2.6-2.6-2.6-6.8,0-9.5l8.5-8.5c-0.6-2.4-1.8-4.8-3.6-6.6l-16.3-16.3
			l-9.6-9.3c-1-1-2.6-1-3.6,0c-1.2,1-1.2,2.8-0.2,3.8l9.5,9.5l-3,1.2c-1.8,0.6-3.6,1.8-5,3.2l-1.2,1.4l-27.8-27.8
			c-0.5-0.5-1.2-0.8-1.9-0.8s-1.4,0.3-1.9,0.8c-1,1-1,2.8,0,3.8l26.2,26.4c0.6,0.8,0.6,1.8,0,2.6c-0.6,0.8-2,1-2.8,0.2L149,84.5
			c-1-1-2.8-1-3.8,0s-1,2.8,0,3.8l32,32c0.8,0.8,0.6,2-0.2,2.8s-2,0.6-2.8-0.2l-27.8-28c-1-1-2.8-1-3.8,0s-1,2.8,0,3.8l27.8,27.8
			c0.8,0.8,0.8,2,0,2.8s-2,0.8-2.8,0l-25-25c-1-1-2.8-1-3.8,0s-1,2.8,0,3.8l44.1,44.1C189.1,157.8,196.3,162,204.4,164.6z
			 M291.7,121c1.2,1,2.8,0.8,3.8-0.2c1-1.2,0.8-2.8-0.2-3.8l-26.4-26.4c-0.4-0.4-1-1.8,0-2.8c0.8-0.8,2-0.8,2.8,0l31.8,31.8
			c1.6,1.4,3.2,0.6,3.8,0c1-1,1-2.8,0-3.8L275.5,84c-0.2-0.2-0.6-0.9-0.6-1.5c0-0.4,0.2-0.9,0.6-1.3c0.8-0.8,2-0.8,2.8,0l28,28.2
			c0.2,0.2,0.2,0.2,0.2,0.2c1.2,1,2.8,0.8,3.8-0.2c1-1.2,0.8-2.8-0.2-3.8l-27.8-28c-0.8-0.8-0.8-2,0-2.8s2-0.8,2.8,0l25,25
			c1.2,0.8,2.6,0.8,3.6,0c1-1,1.2-2.6,0.2-3.8l-45.1-44.9c-6-5.2-13.1-9.3-20.7-11.7c0,0.2-25.4,25.6-25.4,25.6
			c0.6,0.6,1.2,1.4,1.6,2.2l5.2-5.2c1.3-1.3,3-2,4.7-2s3.4,0.7,4.7,2c2.6,2.6,2.6,6.8,0,9.5l-8.5,8.5c0.6,2.4,1.8,4.8,3.6,6.6
			l16.1,16.1l9.5,9.5c1,1,2.8,1,3.8,0s1-2.8,0-3.8l-9.5-9.5l3-1c1.8-0.6,3.6-1.8,5-3.2l1.4-1.4L291.7,121z M225.1,121.2l13.9-13.9
			c1.8-1.8,3.8-3.2,6.2-4l-13.9-13.9c-1.8-1.8-3.2-3.8-4-6.2L213.4,97c-1.8,1.8-3.8,3.2-6.2,4l13.9,13.9
			C222.9,116.7,224.3,118.8,225.1,121.2z M188.9,106.1c0.6-0.6,1.4-1.2,2.2-1.6l-5.2-5.2c-2.4-2.4-2.4-6.4,0-9.1
			c2.4-2.8,6.6-3,9.5-0.4l8.5,8.5c2.6-0.6,4.8-2,6.6-3.8l16.3-16.3l9.5-9.5c0.8-1.2,0.8-2.6,0-3.6c-1-1-2.6-1.2-3.8-0.2l-9.5,9.5
			l-1-3c-0.6-1.8-1.8-3.6-3.2-5l-1.4-1.4l27.8-27.8c1-1,1-2.8,0-3.8c-0.6-0.6-2.6-1.2-3.8,0S215,59.6,215,59.6c-0.8,0.8-2,0.8-2.8,0
			s-0.8-2,0-2.8L244,25c1-1,1-2.8,0-3.8s-2.8-1-3.8,0L208.6,53c-0.8,0.8-2,0.8-2.8,0s-0.8-2,0-2.8l28-28c1-1,1-2.6,0-3.6
			c-1-1.2-2.8-1.2-3.8-0.2l-28,28c-0.8,0.8-2,0.8-2.8,0c-0.4-0.4-1.2-1.6,0-2.8l25-25.2c0.8-1.2,0.8-2.6,0-3.6c-1-1-2.6-1.2-3.8-0.2
			l-44.9,45.1c-5.2,6-9.1,13.1-11.9,21.3C163.5,80.7,188.9,106.1,188.9,106.1z"/>
		<path class="st2" d="M232.4,189.8c-1,1-2.6,1-3.6,0s-1-2.8,0-3.8l25-25c0.8-0.8,0.8-2,0-2.8s-2-0.8-2.8,0l-27.8,28
			c-1,1-2.8,1-3.8,0s-1-2.8,0-3.8l28-28c0.8-0.8,0.8-2,0-2.8c-0.4-0.4-0.9-0.6-1.4-0.6s-1,0.2-1.4,0.6l-31.8,31.8c-1,1-2.8,1-3.8,0
			s-1-2.8,0-3.8l31.6-32c0.8-0.8,0.8-2,0-2.8c-0.4-0.4-0.9-0.6-1.4-0.6s-1,0.2-1.4,0.6l-26.4,26.4c-1,1-2.8,1-3.8,0s-1-2.8,0-3.8
			l27.8-27.8l-1.4-1.4c-1.4-1.4-2.6-3.2-3.2-5l-1-3l-3.8-3.8l16.2-16.1c1.8-1.8,4-3,6.6-3.6l8.5,8.5c2.6,2.6,6.8,2.6,9.5,0
			s2.6-6.8,0-9.5l-5.2-5.2c0.8-0.4,1.6-1,2.2-1.6c0,0,25.4,25.2,25.6,25.4c-2.8,8.1-7,15.3-12.7,21.7L232.4,189.8z"/>
		<path class="st2" d="M229.7,139.3l-25.4,25.4c-8.1-2.6-15.3-6.8-21.7-12.3l-44.1-44.1c-1-1-1-2.8,0-3.8s2.8-1,3.8,0l25,25
			c0.8,0.8,2,0.8,2.8,0s0.8-2,0-2.8l-27.8-27.8c-1-1-1-2.8,0-3.8s2.8-1,3.8,0l27.8,28c0.8,0.8,2,1,2.8,0.2s1-2,0.2-2.8l-32-32
			c-1-1-1-2.8,0-3.8s2.8-1,3.8,0l31.8,31.8c0.8,0.8,2.2,0.6,2.8-0.2c0.6-0.8,0.6-1.8,0-2.6l-26.2-26.4c-1-1-1-2.8,0-3.8
			c0.5-0.5,1.2-0.8,1.9-0.8s1.4,0.3,1.9,0.8l27.8,27.8l1.2-1.4c1.4-1.4,3.2-2.6,5-3.2l3-1.2l3.8-3.8L218,118c1.8,1.8,3,4.2,3.6,6.6
			l-8.5,8.5c-2.6,2.6-2.6,6.8,0,9.5c2.6,2.6,6.8,2.6,9.5,0l5.2-5.2C228.5,137.9,229.1,138.7,229.7,139.3z"/>
		<path class="st2" d="M220.1,139.5c-1,1-2.8,1-3.8,0s-1-2.8,0-3.8l9.5-9.4l3.8,3.8L220.1,139.5z"/>
		<path class="st2" d="M295.6,120.8c-1,1-2.6,1.2-3.8,0.2l-28-28l-1.4,1.4c-1.4,1.4-3.2,2.6-5,3.2l-3,1l-3.8,3.8l-16.1-16.1
			c-1.8-1.8-3-4.2-3.6-6.6l8.5-8.5c2.6-2.6,2.6-6.8,0-9.5c-1.3-1.3-3-2-4.7-2s-3.4,0.7-4.7,2l-5.5,5.3c-0.4-0.8-1-1.6-1.6-2.2
			c0,0,25.4-25.4,25.4-25.6c7.6,2.4,14.7,6.4,20.7,11.7l45.1,44.9c1,1.2,0.8,2.8-0.2,3.8c-1,0.8-2.4,0.8-3.6,0l-25-25
			c-0.8-0.8-2-0.8-2.8,0s-0.8,2,0,2.8l27.8,28c1,1,1.2,2.6,0.2,3.8c-1,1-2.6,1.2-3.8,0.2c0,0,0,0-0.2-0.2l-28-28.2
			c-0.8-0.8-2-0.8-2.8,0c-0.5,0.4-0.6,0.8-0.6,1.3c0,0.7,0.4,1.3,0.6,1.5l31.8,31.8c1,1,1,2.8,0,3.8c-0.6,0.6-2.2,1.4-3.8,0
			l-31.8-31.8c-0.8-0.8-2-0.8-2.8,0c-1,1-0.4,2.4,0,2.8l26.4,26.4C296.4,118,296.6,119.6,295.6,120.8z"/>
		<path class="st2" d="M263.8,111.9c-1,1-2.8,1-3.8,0l-9.5-9.5l3.8-3.8l9.5,9.5C264.8,109.1,264.8,110.9,263.8,111.9z"/>
		<path class="st2" d="M198.2,105.3l-9.5-9.5c-1-1-1-2.8,0.2-3.8c1-1,2.6-1,3.6,0l9.5,9.5L198.2,105.3z"/>
		<path class="st2" d="M191.1,104.5c-0.8,0.4-1.6,1-2.2,1.6c0,0-25.4-25.4-25.6-25.4c2.8-8.3,6.6-15.3,11.9-21.3l44.9-45.1
			c1.2-1,2.8-0.8,3.8,0.2c0.8,1,0.8,2.4,0,3.6l-25,25.2c-1.2,1.2-0.4,2.4,0,2.8c0.8,0.8,2,0.8,2.8,0l28-28c1-1,2.8-1,3.8,0.2
			c1,1,1,2.6,0,3.6l-28,28c-0.8,0.8-0.8,2,0,2.8s2,0.8,2.8,0L240,21c1-1,2.8-1,3.8,0s1,2.8,0,3.8L212,56.6c-0.8,0.8-0.8,2,0,2.8
			s2,0.8,2.8,0c0,0,25.2-25,26.4-26.2s3.2-0.6,3.8,0c1,1,1,2.8,0,3.8l-27.8,27.8l1.4,1.4c1.4,1.4,2.6,3.2,3.2,5l1,3l3.8,3.8
			l-16.3,16.3c-1.8,1.8-4,3.2-6.6,3.8l-8.5-8.5c-2.8-2.6-7-2.4-9.5,0.4c-2.4,2.6-2.4,6.6,0,9.1L191.1,104.5z"/>
		<path class="st2" d="M226.7,78.1l-3.8-3.8l9.5-9.5c1.2-1,2.8-0.8,3.8,0.2c0.8,1,0.8,2.4,0,3.6L226.7,78.1z"/>
	</g>
</g>
<rect x="-177" y="177" style="fill:none;" width="3" height="8"/>
<text transform="matrix(1 0 0 1 4.6133 271.9629)"><tspan x="0" y="0" class="st1 st3 st4 st5">t</tspan><tspan x="49.7" y="0" class="st1 st3 st4 st6">r</tspan><tspan x="99.6" y="0" class="st1 st3 st4 st7">a</tspan><tspan x="166.5" y="0" class="st1 st3 st4">c</tspan><tspan x="226.5" y="0" class="st1 st3 st4 st7">ti</tspan><tspan x="308.5" y="0" class="st1 st3 st4 st5">on</tspan></text>
</svg>
