<?xml version="1.0" encoding="utf-8"?>
<!-- Generator: Adobe Illustrator 22.1.0, SVG Export Plug-In . SVG Version: 6.00 Build 0)  -->
<svg version="1.1" id="Layer_1" xmlns="http://www.w3.org/2000/svg" xmlns:xlink="http://www.w3.org/1999/xlink" x="0px" y="0px"
	 viewBox="0 0 400.7 97.3" style="enable-background:new 0 0 400.7 97.3;" xml:space="preserve">
<style type="text/css">
	.st0{fill:#353531;}
	.st1{font-family:'OpenSans';}
	.st2{font-size:81.1233px;}
	.st3{letter-spacing:-2;}
	.st4{letter-spacing:-4;}
	.st5{fill:#F48385;}
	.st6{fill:#2374AC;}
	.st7{fill:#58C3B8;}
	.st8{fill:#FEF8DF;}
</style>
<text transform="matrix(1 0 0 1 92.7738 86.7182)"><tspan x="0" y="0" class="st0 st1 st2 st3">tr</tspan><tspan x="67" y="0" class="st0 st1 st2 st4">a</tspan><tspan x="111.3" y="0" class="st0 st1 st2">c</tspan><tspan x="152.1" y="0" class="st0 st1 st2 st3">ti</tspan><tspan x="210.7" y="0" class="st0 st1 st2 st4">on</tspan></text>
<g id="XMLID_1_">
	<g>
		<path class="st0" d="M53.3,92.6c-1.3,1.3-3.2,1.3-4.5,0.2c-0.4-0.3-0.6-0.8-0.8-1.3c-1.3,0.7-2.8,0.4-3.8-0.6
			c-0.4-0.4-0.6-0.8-0.8-1.2c-1.4,1.2-3.4,1.1-4.5-0.3c-1.2-1.4-1.1-3.4,0.3-4.5l0.6-0.6c-0.4-0.2-0.8-0.5-1.1-0.8
			c-0.6-0.6-1-1.4-1-2.2c0-0.1,0-0.2,0-0.3c-2-0.7-4-1.6-5.8-2.6c-1.8-1.1-3.6-2.3-5.2-3.7c-0.6-0.5-5.9-5.8-11.1-11
			S5.5,53.5,5.5,53.5c-1.3-1.3-1.3-3.3,0-4.5c0.3-0.3,0.7-0.6,1.2-0.8c-0.3-0.5-0.4-1.1-0.4-1.5c0-0.9,0.4-1.7,1-2.3
			C7.5,44,8,43.8,8.4,43.6c-0.5-0.6-0.8-1.3-0.8-2s0.4-1.6,1-2.2c1.3-1.3,3.3-1.3,4.5,0l0.6,0.6c0.7-2.4,2.8-2,3.2-2
			c1.4-3.9,3.4-7.4,6-10.5l0.1-0.1c1.3-1.4,21.6-21.6,21.6-21.6c1.3-1.3,3.3-1.3,4.5,0c0.4,0.4,0.6,0.8,0.8,1.3
			c1.3-0.7,2.8-0.4,3.8,0.6c0.4,0.4,0.6,0.8,0.8,1.2c1.3-1.3,3.4-1.1,4.5,0.3c1.2,1.4,1.1,3.4-0.3,4.5L58.1,14
			c0.5,0.1,0.9,0.4,1.2,0.7c0.7,0.6,1.1,1.4,1,2.4c3.9,1.4,7.4,3.4,10.5,6h0.1c1.4,1.3,21.6,21.6,21.6,21.6c0.4,0.4,0.6,0.9,0.8,1.4
			c0.6,1.7-0.4,3.5-2,4.1c0.7,1.3,0.4,2.8-0.6,3.8c-0.4,0.4-0.8,0.6-1.2,0.8c1,1.3,0.9,3.1-0.3,4.3c-1.3,1.3-3.3,1.3-4.5,0l-0.6-0.6
			c-0.5,1.3-1.6,2-3,2c0,0-0.1,0-0.2,0c-0.7,2-1.6,4-2.6,5.8c-1.1,1.8-2.3,3.6-3.7,5.2C73.6,72.5,53.3,92.6,53.3,92.6z M50.1,91.3
			c0.5,0.5,1.3,0.5,1.7,0L73,70.1c2.7-3.1,4.7-6.6,6.1-10.4C79,59.6,66.8,47.5,66.8,47.5c-0.3,0.3-0.7,0.6-1.1,0.8l2.5,2.5
			c1.3,1.3,1.3,3.3,0,4.5c-1.3,1.3-3.3,1.3-4.5,0l-4.1-4.1c-1.3,0.3-2.3,0.9-3.2,1.7l-7.8,7.7l-4.6,4.5c-0.5,0.5-0.5,1.4,0,1.8
			s1.4,0.5,1.8,0l4.5-4.5L51,64c0.3,0.9,0.9,1.7,1.5,2.4l0.7,0.7L39.9,80.5c-0.5,0.5-0.5,1.4,0,1.8c0.5,0.5,1.4,0.5,1.8,0l12.7-12.7
			c0.2-0.2,0.4-0.3,0.7-0.3s0.5,0.1,0.7,0.3c0.4,0.4,0.4,1,0,1.4L40.5,86.4c-0.5,0.5-0.5,1.4,0,1.8s1.4,0.5,1.8,0l15.3-15.3
			c0.2-0.2,0.4-0.3,0.7-0.3s0.5,0.1,0.7,0.3c0.4,0.4,0.4,1,0,1.4L45.6,87.7c-0.5,0.5-0.5,1.4,0,1.8s1.4,0.5,1.8,0l13.3-13.4
			c0.4-0.4,1-0.4,1.4,0c0.4,0.4,0.4,1,0,1.4l-12,12C49.6,89.9,49.6,90.8,50.1,91.3z M38.4,79.2L50.6,67c-0.3-0.3-0.6-0.7-0.8-1.1
			l-2.5,2.5c-1.3,1.3-3.3,1.3-4.5,0c-1.3-1.3-1.3-3.3,0-4.5l4.1-4.1c-0.3-1.2-0.9-2.3-1.7-3.2l-7.8-7.8l-4.5-4.5
			c-0.5-0.5-1.3-0.5-1.7,0c-0.6,0.5-0.6,1.4-0.1,1.8l4.5,4.5L34,51.3c-0.9,0.3-1.7,0.9-2.4,1.5L31,53.5L17.6,40.2
			c-0.2-0.2-0.6-0.4-0.9-0.4c-0.3,0-0.7,0.1-0.9,0.4c-0.5,0.5-0.5,1.4,0,1.8l12.6,12.7c0.3,0.4,0.3,0.9,0,1.3
			c-0.3,0.4-1,0.5-1.4,0.1L11.7,40.8c-0.5-0.5-1.4-0.5-1.8,0s-0.5,1.4,0,1.8L25.3,58c0.4,0.4,0.3,1-0.1,1.4c-0.4,0.4-1,0.3-1.4-0.1
			L10.5,45.8c-0.5-0.5-1.4-0.5-1.8,0s-0.5,1.4,0,1.8L22,61c0.4,0.4,0.4,1,0,1.4c-0.4,0.4-1,0.4-1.4,0l-12-12c-0.5-0.5-1.4-0.5-1.8,0
			s-0.5,1.4,0,1.8L28,73.3C31.1,75.9,34.5,78,38.4,79.2z M80.3,58.3c0.6,0.5,1.4,0.4,1.8-0.1c0.5-0.6,0.4-1.4-0.1-1.8L69.4,43.7
			c-0.2-0.2-0.5-0.9,0-1.4c0.4-0.4,1-0.4,1.4,0L86,57.6c0.8,0.7,1.5,0.3,1.8,0c0.5-0.5,0.5-1.4,0-1.8L72.6,40.5
			c-0.1-0.1-0.3-0.4-0.3-0.7c0-0.2,0.1-0.4,0.3-0.6c0.4-0.4,1-0.4,1.4,0l13.4,13.5c0.1,0.1,0.1,0.1,0.1,0.1c0.6,0.5,1.4,0.4,1.8-0.1
			c0.5-0.6,0.4-1.4-0.1-1.8L75.9,37.4c-0.4-0.4-0.4-1,0-1.4c0.4-0.4,1-0.4,1.4,0l12,12c0.6,0.4,1.3,0.4,1.7,0
			c0.5-0.5,0.6-1.3,0.1-1.8L69.4,24.6c-2.9-2.5-6.3-4.4-10-5.6c0,0.1-12.2,12.3-12.2,12.3c0.3,0.3,0.6,0.7,0.8,1.1l2.5-2.5
			c0.6-0.6,1.4-0.9,2.3-0.9c0.8,0,1.6,0.3,2.3,0.9c1.3,1.3,1.3,3.3,0,4.5l-4.1,4.1c0.3,1.2,0.9,2.3,1.7,3.2l7.7,7.7l4.5,4.5
			c0.5,0.5,1.4,0.5,1.8,0s0.5-1.4,0-1.8l-4.5-4.5l1.4-0.5c0.9-0.3,1.7-0.9,2.4-1.5l0.7-0.7L80.3,58.3z M48.4,58.3l6.7-6.7
			c0.9-0.9,1.8-1.5,3-1.9l-6.7-6.7c-0.9-0.9-1.5-1.8-1.9-3l-6.7,6.7c-0.9,0.9-1.8,1.5-3,1.9l6.7,6.7C47.3,56.2,48,57.2,48.4,58.3z
			 M31,51.1c0.3-0.3,0.7-0.6,1.1-0.8l-2.5-2.5c-1.2-1.2-1.2-3.1,0-4.3c1.2-1.4,3.2-1.4,4.5-0.2l4.1,4.1c1.3-0.3,2.3-1,3.2-1.8
			l7.8-7.8l4.5-4.5c0.4-0.6,0.4-1.3,0-1.7c-0.5-0.5-1.3-0.6-1.8-0.1l-4.5,4.5l-0.5-1.4c-0.3-0.9-0.9-1.7-1.5-2.4l-0.7-0.7L57.9,18
			c0.5-0.5,0.5-1.4,0-1.8c-0.3-0.3-1.3-0.6-1.8,0c-0.6,0.6-12.7,12.6-12.7,12.6c-0.4,0.4-1,0.4-1.4,0s-0.4-1,0-1.4l15.3-15.3
			c0.5-0.5,0.5-1.4,0-1.8c-0.5-0.5-1.4-0.5-1.8,0L40.3,25.5c-0.4,0.4-1,0.4-1.4,0c-0.4-0.4-0.4-1,0-1.4l13.4-13.4
			c0.5-0.5,0.5-1.3,0-1.7c-0.5-0.6-1.4-0.6-1.8-0.1L37.1,22.3c-0.4,0.4-1,0.4-1.4,0c-0.2-0.2-0.6-0.8,0-1.4l12-12.1
			c0.4-0.6,0.4-1.3,0-1.7c-0.5-0.5-1.3-0.6-1.8-0.1L24.4,28.7c-2.5,2.9-4.3,6.3-5.7,10.2C18.8,38.9,31,51.1,31,51.1z"/>
		<path class="st5" d="M51.8,91.3c-0.5,0.5-1.3,0.5-1.7,0s-0.5-1.4,0-1.8l12-12c0.4-0.4,0.4-1,0-1.4c-0.4-0.4-1-0.4-1.4,0L47.4,89.6
			c-0.5,0.5-1.4,0.5-1.8,0s-0.5-1.4,0-1.8L59,74.3c0.4-0.4,0.4-1,0-1.4c-0.2-0.2-0.4-0.3-0.7-0.3s-0.5,0.1-0.7,0.3L42.4,88.2
			c-0.5,0.5-1.4,0.5-1.8,0s-0.5-1.4,0-1.8L55.7,71c0.4-0.4,0.4-1,0-1.4c-0.2-0.2-0.4-0.3-0.7-0.3s-0.5,0.1-0.7,0.3L41.7,82.3
			c-0.5,0.5-1.4,0.5-1.8,0c-0.5-0.5-0.5-1.4,0-1.8l13.3-13.3l-0.7-0.7c-0.7-0.7-1.3-1.5-1.5-2.4l-0.5-1.4l-1.8-1.8l7.8-7.7
			c0.9-0.9,1.9-1.4,3.2-1.7l4.1,4.1c1.3,1.3,3.3,1.3,4.5,0c1.3-1.3,1.3-3.3,0-4.5l-2.5-2.5c0.4-0.2,0.8-0.5,1.1-0.8
			c0,0,12.2,12.1,12.3,12.2c-1.4,3.9-3.4,7.3-6.1,10.4L51.8,91.3z"/>
		<path class="st6" d="M50.6,67L38.4,79.2c-3.9-1.3-7.3-3.3-10.4-5.9L6.8,52.2c-0.5-0.5-0.5-1.4,0-1.8s1.4-0.5,1.8,0l12,12
			c0.4,0.4,1,0.4,1.4,0c0.4-0.4,0.4-1,0-1.4L8.6,47.6c-0.5-0.5-0.5-1.4,0-1.8s1.4-0.5,1.8,0l13.3,13.4c0.4,0.4,1,0.5,1.4,0.1
			c0.4-0.4,0.5-1,0.1-1.4L9.9,42.6c-0.5-0.5-0.5-1.4,0-1.8s1.4-0.5,1.8,0L27,56c0.4,0.4,1.1,0.3,1.4-0.1c0.3-0.4,0.3-0.9,0-1.3
			L15.8,42c-0.5-0.5-0.5-1.4,0-1.8c0.2-0.2,0.6-0.4,0.9-0.4c0.3,0,0.7,0.1,0.9,0.4L31,53.5l0.6-0.7c0.7-0.7,1.5-1.3,2.4-1.5l1.4-0.6
			l1.8-1.8l7.8,7.8c0.9,0.9,1.4,2,1.7,3.2L42.8,64c-1.3,1.3-1.3,3.3,0,4.5c1.3,1.3,3.3,1.3,4.5,0l2.5-2.5C50,66.4,50.3,66.8,50.6,67
			z"/>
		<path class="st5" d="M45.9,67.1c-0.5,0.5-1.4,0.5-1.8,0s-0.5-1.4,0-1.8l4.6-4.5l1.8,1.8L45.9,67.1z"/>
		<path class="st7" d="M82.2,58.2c-0.5,0.5-1.3,0.6-1.8,0.1L66.9,44.8l-0.7,0.7c-0.7,0.7-1.5,1.3-2.4,1.5l-1.4,0.5l-1.8,1.8
			l-7.7-7.7c-0.9-0.9-1.4-2-1.7-3.2l4.1-4.1c1.3-1.3,1.3-3.3,0-4.5c-0.6-0.6-1.4-0.9-2.3-0.9c-0.8,0-1.6,0.3-2.3,0.9l-2.5,2.5
			c-0.2-0.4-0.5-0.8-0.8-1.1c0,0,12.2-12.2,12.2-12.3c3.7,1.2,7.1,3.1,10,5.6l21.6,21.5c0.5,0.6,0.4,1.4-0.1,1.8
			c-0.5,0.4-1.2,0.4-1.7,0l-12-12c-0.4-0.4-1-0.4-1.4,0c-0.4,0.4-0.4,1,0,1.4l13.3,13.4c0.5,0.5,0.6,1.3,0.1,1.8
			c-0.5,0.5-1.3,0.6-1.8,0.1c0,0,0,0-0.1-0.1L74,39.1c-0.4-0.4-1-0.4-1.4,0c-0.2,0.2-0.3,0.4-0.3,0.6c0,0.3,0.2,0.6,0.3,0.7
			l15.3,15.3c0.5,0.5,0.5,1.4,0,1.8c-0.3,0.3-1.1,0.7-1.8,0L70.8,42.3c-0.4-0.4-1-0.4-1.4,0c-0.5,0.5-0.2,1.2,0,1.4l12.7,12.7
			C82.6,56.8,82.6,57.6,82.2,58.2z"/>
		<path class="st7" d="M66.9,53.9c-0.5,0.5-1.4,0.5-1.8,0l-4.5-4.5l1.8-1.8l4.5,4.5C67.4,52.6,67.4,53.4,66.9,53.9z"/>
		<path class="st6" d="M35.4,50.7l-4.5-4.5c-0.5-0.5-0.5-1.4,0.1-1.8c0.5-0.5,1.3-0.5,1.7,0l4.5,4.5L35.4,50.7z"/>
		<path class="st8" d="M32,50.3c-0.4,0.2-0.8,0.5-1.1,0.8c0,0-12.2-12.2-12.3-12.2c1.4-4,3.2-7.3,5.7-10.2L45.9,7
			c0.6-0.5,1.4-0.4,1.8,0.1c0.4,0.5,0.4,1.2,0,1.7L35.8,21c-0.6,0.6-0.2,1.2,0,1.4c0.4,0.4,1,0.4,1.4,0L50.6,8.9
			c0.5-0.5,1.4-0.5,1.8,0.1c0.5,0.5,0.5,1.3,0,1.7L39,24.1c-0.4,0.4-0.4,1,0,1.4c0.4,0.4,1,0.4,1.4,0l15.2-15.3
			c0.5-0.5,1.4-0.5,1.8,0c0.5,0.5,0.5,1.4,0,1.8L42.1,27.3c-0.4,0.4-0.4,1,0,1.4s1,0.4,1.4,0c0,0,12.1-12,12.7-12.6
			c0.6-0.6,1.5-0.3,1.8,0c0.5,0.5,0.5,1.4,0,1.8L44.6,31.3l0.7,0.7c0.7,0.7,1.3,1.5,1.5,2.4l0.5,1.4l1.8,1.8l-7.8,7.8
			c-0.9,0.9-1.9,1.5-3.2,1.8l-4.1-4.1c-1.4-1.3-3.4-1.2-4.5,0.2c-1.2,1.3-1.2,3.2,0,4.3L32,50.3z"/>
		<path class="st8" d="M49.1,37.7l-1.8-1.8l4.5-4.5c0.6-0.5,1.4-0.4,1.8,0.1c0.4,0.5,0.4,1.2,0,1.7L49.1,37.7z"/>
	</g>
	<g>
	</g>
</g>
</svg>
