<?xml version="1.0" encoding="utf-8"?>
<!-- Generator: Adobe Illustrator 22.1.0, SVG Export Plug-In . SVG Version: 6.00 Build 0)  -->
<svg version="1.1" id="Layer_1" xmlns="http://www.w3.org/2000/svg" xmlns:xlink="http://www.w3.org/1999/xlink" x="0px" y="0px"
	 viewBox="0 0 405.3 89" style="enable-background:new 0 0 405.3 89;" xml:space="preserve">
<style type="text/css">
	.st0{fill:#353531;}
	.st1{font-family:'OpenSans-ExtraboldItalic';}
	.st2{font-size:81.1233px;}
	.st3{letter-spacing:-2;}
	.st4{letter-spacing:-3;}
	.st5{letter-spacing:-1;}
	.st6{letter-spacing:-4;}
	.st7{letter-spacing:-5;}
	.st8{letter-spacing:-7;}
	.st9{fill:#F48385;}
	.st10{fill:#2374AC;}
	.st11{fill:#58C3B8;}
	.st12{fill:#FEF8DF;}
	@font-family {
	src: url('https://fonts.googleapis.com/css?family=Open+Sans:800i')
	}
</style>
<text transform="matrix(1 0 0 1 94.7738 82.0643)"><tspan x="0" y="0" class="st0 st1 st2 st3">t</tspan><tspan x="34.3" y="0" class="st0 st1 st2">r</tspan><tspan x="68.9" y="0" class="st0 st1 st2 st4">a</tspan><tspan x="114.1" y="0" class="st0 st1 st2">c</tspan><tspan x="155.9" y="0" class="st0 st1 st2 st5">t</tspan><tspan x="191.8" y="0" class="st0 st1 st2 st6">i</tspan><tspan x="213.8" y="0" class="st0 st1 st2 st7">o</tspan><tspan x="257.8" y="0" class="st0 st1 st2 st8">n</tspan></text>
<g id="XMLID_1_">
	<g>
		<path class="st0" d="M52.3,88c-1.3,1.3-3.2,1.3-4.5,0.2c-0.4-0.3-0.6-0.8-0.8-1.3c-1.3,0.7-2.8,0.4-3.8-0.6
			c-0.4-0.4-0.6-0.8-0.8-1.2c-1.4,1.2-3.4,1.1-4.5-0.3c-1.2-1.4-1.1-3.4,0.3-4.5l0.6-0.6c-0.4-0.2-0.8-0.5-1.1-0.8
			c-0.6-0.6-1-1.4-1-2.2c0-0.1,0-0.2,0-0.3c-2-0.7-4-1.6-5.8-2.6c-1.8-1.1-3.6-2.3-5.2-3.7c-0.6-0.5-5.9-5.8-11.1-11
			S4.5,48.9,4.5,48.9c-1.3-1.3-1.3-3.3,0-4.5c0.3-0.3,0.7-0.6,1.2-0.8c-0.3-0.5-0.4-1.1-0.4-1.5c0-0.9,0.4-1.7,1-2.3
			c0.3-0.4,0.8-0.6,1.2-0.8c-0.5-0.6-0.8-1.3-0.8-2c0-0.8,0.4-1.6,1-2.2c1.3-1.3,3.3-1.3,4.5,0l0.6,0.6c0.7-2.4,2.8-2,3.2-2
			c1.4-3.9,3.4-7.4,6-10.5l0.1-0.1c1.3-1.4,21.6-21.6,21.6-21.6c1.3-1.3,3.3-1.3,4.5,0c0.4,0.4,0.6,0.8,0.8,1.3
			c1.3-0.7,2.8-0.4,3.8,0.6c0.4,0.4,0.6,0.8,0.8,1.2c1.3-1.3,3.4-1.1,4.5,0.3c1.2,1.4,1.1,3.4-0.3,4.5l-0.6,0.6
			c0.5,0.1,0.9,0.4,1.2,0.7c0.7,0.6,1.1,1.4,1,2.4c3.9,1.4,7.4,3.4,10.5,6h0.1c1.4,1.3,21.6,21.6,21.6,21.6c0.4,0.4,0.6,0.9,0.8,1.4
			c0.6,1.7-0.4,3.5-2,4.1c0.7,1.3,0.4,2.8-0.6,3.8c-0.4,0.4-0.8,0.6-1.2,0.8c1,1.3,0.9,3.1-0.3,4.3c-1.3,1.3-3.3,1.3-4.5,0l-0.6-0.6
			c-0.5,1.3-1.6,2-3,2c0,0-0.1,0-0.2,0c-0.7,2-1.6,4-2.6,5.8c-1.1,1.8-2.3,3.6-3.7,5.2C72.6,67.9,52.3,88,52.3,88z M49.1,86.6
			c0.5,0.5,1.3,0.5,1.7,0L72,65.5c2.7-3.1,4.7-6.6,6.1-10.4C78,54.9,65.8,42.9,65.8,42.9c-0.3,0.3-0.7,0.6-1.1,0.8l2.5,2.5
			c1.3,1.3,1.3,3.3,0,4.5C66,52,64,52,62.7,50.7l-4.1-4.1c-1.3,0.3-2.3,0.9-3.2,1.7l-7.8,7.7l-4.6,4.5c-0.5,0.5-0.5,1.4,0,1.8
			s1.4,0.5,1.8,0l4.5-4.5l0.5,1.4c0.3,0.9,0.9,1.7,1.5,2.4l0.7,0.7L38.9,75.8c-0.5,0.5-0.5,1.4,0,1.8c0.5,0.5,1.4,0.5,1.8,0L53.3,65
			c0.2-0.2,0.4-0.3,0.7-0.3s0.5,0.1,0.7,0.3c0.4,0.4,0.4,1,0,1.4L39.5,81.7c-0.5,0.5-0.5,1.4,0,1.8s1.4,0.5,1.8,0l15.3-15.3
			c0.2-0.2,0.4-0.3,0.7-0.3s0.5,0.1,0.7,0.3c0.4,0.4,0.4,1,0,1.4L44.6,83.1c-0.5,0.5-0.5,1.4,0,1.8s1.4,0.5,1.8,0l13.3-13.4
			c0.4-0.4,1-0.4,1.4,0s0.4,1,0,1.4l-12,12C48.6,85.3,48.6,86.2,49.1,86.6z M37.4,74.6l12.2-12.2c-0.3-0.3-0.6-0.7-0.8-1.1l-2.5,2.5
			c-1.3,1.3-3.3,1.3-4.5,0c-1.3-1.3-1.3-3.3,0-4.5l4.1-4.1c-0.3-1.2-0.9-2.3-1.7-3.2l-7.8-7.8l-4.5-4.5c-0.5-0.5-1.3-0.5-1.7,0
			c-0.6,0.5-0.6,1.4-0.1,1.8l4.5,4.5L33,46.6c-0.9,0.3-1.7,0.9-2.4,1.5L30,48.9L16.6,35.5c-0.2-0.2-0.6-0.4-0.9-0.4
			s-0.7,0.1-0.9,0.4c-0.5,0.5-0.5,1.4,0,1.8L27.4,50c0.3,0.4,0.3,0.9,0,1.3s-1,0.5-1.4,0.1L10.7,36.1c-0.5-0.5-1.4-0.5-1.8,0
			s-0.5,1.4,0,1.8l15.4,15.4c0.4,0.4,0.3,1-0.1,1.4c-0.4,0.4-1,0.3-1.4-0.1L9.5,41.1c-0.5-0.5-1.4-0.5-1.8,0s-0.5,1.4,0,1.8L21,56.3
			c0.4,0.4,0.4,1,0,1.4c-0.4,0.4-1,0.4-1.4,0l-12-12c-0.5-0.5-1.4-0.5-1.8,0s-0.5,1.4,0,1.8L27,68.7C30.1,71.3,33.5,73.3,37.4,74.6z
			 M79.3,53.6c0.6,0.5,1.4,0.4,1.8-0.1c0.5-0.6,0.4-1.4-0.1-1.8L68.4,39c-0.2-0.2-0.5-0.9,0-1.4c0.4-0.4,1-0.4,1.4,0L85,52.9
			c0.8,0.7,1.5,0.3,1.8,0c0.5-0.5,0.5-1.4,0-1.8L71.6,35.8c-0.1-0.1-0.3-0.4-0.3-0.7c0-0.2,0.1-0.4,0.3-0.6c0.4-0.4,1-0.4,1.4,0
			L86.4,48c0.1,0.1,0.1,0.1,0.1,0.1c0.6,0.5,1.4,0.4,1.8-0.1c0.5-0.6,0.4-1.4-0.1-1.8L74.9,32.7c-0.4-0.4-0.4-1,0-1.4
			c0.4-0.4,1-0.4,1.4,0l12,12c0.6,0.4,1.3,0.4,1.7,0c0.5-0.5,0.6-1.3,0.1-1.8L68.4,20c-2.9-2.5-6.3-4.4-10-5.6
			c0,0.1-12.2,12.3-12.2,12.3c0.3,0.3,0.6,0.7,0.8,1.1l2.5-2.5c0.6-0.6,1.4-0.9,2.3-0.9c0.8,0,1.6,0.3,2.3,0.9
			c1.3,1.3,1.3,3.3,0,4.5l-4.1,4.1c0.3,1.2,0.9,2.3,1.7,3.2l7.7,7.7l4.5,4.5c0.5,0.5,1.4,0.5,1.8,0s0.5-1.4,0-1.8l-4.5-4.5l1.4-0.5
			c0.9-0.3,1.7-0.9,2.4-1.5l0.7-0.7L79.3,53.6z M47.4,53.7L54,47c0.9-0.9,1.8-1.5,3-1.9l-6.7-6.7c-0.9-0.9-1.5-1.8-1.9-3l-6.7,6.7
			c-0.9,0.9-1.8,1.5-3,1.9l6.7,6.7C46.3,51.6,47,52.5,47.4,53.7z M30,46.4c0.3-0.3,0.7-0.6,1.1-0.8l-2.5-2.5c-1.2-1.2-1.2-3.1,0-4.3
			c1.2-1.4,3.2-1.4,4.5-0.2l4.1,4.1c1.3-0.3,2.3-1,3.2-1.8l7.8-7.8l4.5-4.5c0.4-0.6,0.4-1.3,0-1.7c-0.5-0.5-1.3-0.6-1.8-0.1
			l-4.5,4.5l-0.5-1.4c-0.3-0.9-0.9-1.7-1.5-2.4l-0.7-0.7l13.3-13.3c0.5-0.5,0.5-1.4,0-1.8c-0.3-0.3-1.3-0.6-1.8,0S42.4,24,42.4,24
			c-0.4,0.4-1,0.4-1.4,0c-0.4-0.4-0.4-1,0-1.4L56.3,7.4c0.5-0.5,0.5-1.4,0-1.8s-1.4-0.5-1.8,0L39.3,20.8c-0.4,0.4-1,0.4-1.4,0
			c-0.4-0.4-0.4-1,0-1.4L51.4,6.1c0.5-0.5,0.5-1.3,0-1.7c-0.5-0.6-1.4-0.6-1.8-0.1L36.1,17.7c-0.4,0.4-1,0.4-1.4,0
			c-0.2-0.2-0.6-0.8,0-1.4l12-12.1c0.4-0.6,0.4-1.3,0-1.7c-0.5-0.5-1.3-0.6-1.8-0.1L23.4,24c-2.5,2.9-4.3,6.3-5.7,10.2
			C17.8,34.3,30,46.4,30,46.4z"/>
		<path class="st9" d="M50.8,86.6c-0.5,0.5-1.3,0.5-1.7,0s-0.5-1.4,0-1.8l12-12c0.4-0.4,0.4-1,0-1.4s-1-0.4-1.4,0L46.4,84.9
			c-0.5,0.5-1.4,0.5-1.8,0s-0.5-1.4,0-1.8L58,69.6c0.4-0.4,0.4-1,0-1.4c-0.2-0.2-0.4-0.3-0.7-0.3s-0.5,0.1-0.7,0.3L41.4,83.5
			c-0.5,0.5-1.4,0.5-1.8,0s-0.5-1.4,0-1.8l15.2-15.4c0.4-0.4,0.4-1,0-1.4c-0.2-0.2-0.4-0.3-0.7-0.3s-0.5,0.1-0.7,0.3L40.7,77.7
			c-0.5,0.5-1.4,0.5-1.8,0c-0.5-0.5-0.5-1.4,0-1.8l13.3-13.3l-0.7-0.7c-0.7-0.7-1.3-1.5-1.5-2.4l-0.5-1.4l-1.8-1.8l7.8-7.7
			c0.9-0.9,1.9-1.4,3.2-1.7l4.1,4.1c1.3,1.3,3.3,1.3,4.5,0c1.3-1.3,1.3-3.3,0-4.5l-2.5-2.5c0.4-0.2,0.8-0.5,1.1-0.8
			c0,0,12.2,12.1,12.3,12.2c-1.4,3.9-3.4,7.3-6.1,10.4L50.8,86.6z"/>
		<path class="st10" d="M49.6,62.4L37.4,74.6c-3.9-1.3-7.3-3.3-10.4-5.9L5.8,47.5c-0.5-0.5-0.5-1.4,0-1.8s1.4-0.5,1.8,0l12,12
			c0.4,0.4,1,0.4,1.4,0c0.4-0.4,0.4-1,0-1.4L7.6,43c-0.5-0.5-0.5-1.4,0-1.8s1.4-0.5,1.8,0l13.3,13.4c0.4,0.4,1,0.5,1.4,0.1
			c0.4-0.4,0.5-1,0.1-1.4L8.9,37.9c-0.5-0.5-0.5-1.4,0-1.8s1.4-0.5,1.8,0L26,51.4c0.4,0.4,1.1,0.3,1.4-0.1s0.3-0.9,0-1.3L14.8,37.4
			c-0.5-0.5-0.5-1.4,0-1.8c0.2-0.2,0.6-0.4,0.9-0.4s0.7,0.1,0.9,0.4L30,48.9l0.6-0.7c0.7-0.7,1.5-1.3,2.4-1.5l1.4-0.6l1.8-1.8
			l7.8,7.8c0.9,0.9,1.4,2,1.7,3.2l-4.1,4.1c-1.3,1.3-1.3,3.3,0,4.5c1.3,1.3,3.3,1.3,4.5,0l2.5-2.5C49,61.7,49.3,62.1,49.6,62.4z"/>
		<path class="st9" d="M44.9,62.5c-0.5,0.5-1.4,0.5-1.8,0s-0.5-1.4,0-1.8l4.6-4.5l1.8,1.8L44.9,62.5z"/>
		<path class="st11" d="M81.2,53.5c-0.5,0.5-1.3,0.6-1.8,0.1L65.9,40.2l-0.7,0.7c-0.7,0.7-1.5,1.3-2.4,1.5l-1.4,0.5l-1.8,1.8
			L51.8,37c-0.9-0.9-1.4-2-1.7-3.2l4.1-4.1c1.3-1.3,1.3-3.3,0-4.5c-0.6-0.6-1.4-0.9-2.3-0.9c-0.8,0-1.6,0.3-2.3,0.9l-2.5,2.5
			c-0.2-0.4-0.5-0.8-0.8-1.1c0,0,12.2-12.2,12.2-12.3c3.7,1.2,7.1,3.1,10,5.6l21.6,21.5c0.5,0.6,0.4,1.4-0.1,1.8
			c-0.5,0.4-1.2,0.4-1.7,0l-12-12c-0.4-0.4-1-0.4-1.4,0c-0.4,0.4-0.4,1,0,1.4l13.3,13.4c0.5,0.5,0.6,1.3,0.1,1.8
			c-0.5,0.5-1.3,0.6-1.8,0.1c0,0,0,0-0.1-0.1L73,34.5c-0.4-0.4-1-0.4-1.4,0c-0.2,0.2-0.3,0.4-0.3,0.6c0,0.3,0.2,0.6,0.3,0.7
			l15.3,15.3c0.5,0.5,0.5,1.4,0,1.8c-0.3,0.3-1.1,0.7-1.8,0L69.8,37.7c-0.4-0.4-1-0.4-1.4,0c-0.5,0.5-0.2,1.2,0,1.4l12.7,12.7
			C81.6,52.1,81.6,52.9,81.2,53.5z"/>
		<path class="st11" d="M65.9,49.2c-0.5,0.5-1.4,0.5-1.8,0l-4.5-4.5l1.8-1.8l4.5,4.5C66.4,47.9,66.4,48.8,65.9,49.2z"/>
		<path class="st10" d="M34.4,46.1l-4.5-4.5c-0.5-0.5-0.5-1.4,0.1-1.8c0.5-0.5,1.3-0.5,1.7,0l4.5,4.5L34.4,46.1z"/>
		<path class="st12" d="M31,45.7c-0.4,0.2-0.8,0.5-1.1,0.8c0,0-12.2-12.2-12.3-12.2c1.4-4,3.2-7.3,5.7-10.2L44.9,2.4
			c0.6-0.5,1.4-0.4,1.8,0.1c0.4,0.5,0.4,1.2,0,1.7l-12,12.1c-0.6,0.6-0.2,1.2,0,1.4c0.4,0.4,1,0.4,1.4,0L49.6,4.2
			c0.5-0.5,1.4-0.5,1.8,0.1c0.5,0.5,0.5,1.3,0,1.7L38,19.5c-0.4,0.4-0.4,1,0,1.4c0.4,0.4,1,0.4,1.4,0L54.5,5.6
			c0.5-0.5,1.4-0.5,1.8,0s0.5,1.4,0,1.8L41.1,22.7c-0.4,0.4-0.4,1,0,1.4c0.4,0.4,1,0.4,1.4,0c0,0,12.1-12,12.7-12.6s1.5-0.3,1.8,0
			c0.5,0.5,0.5,1.4,0,1.8L43.6,26.6l0.7,0.7c0.7,0.7,1.3,1.5,1.5,2.4l0.5,1.4l1.8,1.8l-7.8,7.8c-0.9,0.9-1.9,1.5-3.2,1.8l-4.1-4.1
			c-1.4-1.3-3.4-1.2-4.5,0.2c-1.2,1.3-1.2,3.2,0,4.3L31,45.7z"/>
		<path class="st12" d="M48.1,33l-1.8-1.8l4.5-4.5c0.6-0.5,1.4-0.4,1.8,0.1c0.4,0.5,0.4,1.2,0,1.7L48.1,33z"/>
	</g>
	<g>
	</g>
</g>
</svg>
