<svg id="Layer_1" data-name="Layer 1" xmlns="http://www.w3.org/2000/svg" viewBox="0 0 575.56 128.28"><defs><style>.cls-1{font-size:111.56px;fill:#353531;font-family:OpenSans-Extrabold, Open Sans;font-weight:700;}.cls-2{fill:#2374ac;}</style></defs><title>traction-logo</title><text class="cls-1" transform="translate(108.86 95.6)">traction</text><path class="cls-2" d="M109.55,32.29a5.83,5.83,0,0,1,0,8.25l-9.18,9.18a25.78,25.78,0,0,1-3,9.52,25.22,25.22,0,0,1,1.86,7.46l9.53,9.53a5.84,5.84,0,0,1,0,8.26L87.25,106A5.85,5.85,0,0,1,79,106l-9.17-9.17a26,26,0,0,1-10.58-3.61,25.18,25.18,0,0,1-10.3,3.24L39.4,106a5.83,5.83,0,0,1-8.25,0L9.62,84.49a5.84,5.84,0,0,1,0-8.26l9.17-9.17a25.92,25.92,0,0,1,3-9.53,24.64,24.64,0,0,1-1.87-7.46L10.4,40.54a5.83,5.83,0,0,1,0-8.25L31.92,10.77a5.85,5.85,0,0,1,8.26,0l9.17,9.17a26,26,0,0,1,10.58,3.62,24.85,24.85,0,0,1,10.3-3.25l9.54-9.54a5.85,5.85,0,0,1,8.25,0Zm-2.88,4.12a1.21,1.21,0,0,0-.37-.87L84.78,14A1.27,1.27,0,0,0,83,14l-8.14,8.14-3.8,2.7a20.24,20.24,0,0,0-7,1.73l.16.14h.25a7.17,7.17,0,0,1,5.12,2.14L91.45,50.67l.6.6a24.09,24.09,0,0,1,2.55,3,21,21,0,0,0,1.17-4.72l2.39-4.11,8.14-8.15A1.22,1.22,0,0,0,106.67,36.41Zm-.42,43.47a1.25,1.25,0,0,0-.36-.89l-8.14-8.14-2.7-3.8a20.18,20.18,0,0,0-1.94-7.44A19.76,19.76,0,0,0,89.17,54l-.6-.6L66.76,31.61a2.69,2.69,0,0,0-1.92-.8,2.93,2.93,0,0,0-.53,0,2.71,2.71,0,0,0-1.4.75,2.74,2.74,0,0,0-.79,2,2.62,2.62,0,0,0,.79,1.8h0L74.28,46.82A2.29,2.29,0,1,1,71,50.05L59.67,38.7h0l-6.07-6.09a1.86,1.86,0,0,0-.22-.19,2.66,2.66,0,0,0-1.7-.6,2.76,2.76,0,0,0-1.92.8,2.72,2.72,0,0,0-.29,3.49L66.08,52.74a2.29,2.29,0,0,1,0,3.25,2.29,2.29,0,0,1-3.24,0l-16-16a.66.66,0,0,1-.19-.15l-.16-.12-1.84-1.84a2.7,2.7,0,0,0-3.83,0,2.71,2.71,0,0,0-.43,3.29,2.88,2.88,0,0,0,.43.56l3.43,3.43h0L59,59.86a2.3,2.3,0,0,1-3.25,3.25L41,48.39h0a2.74,2.74,0,0,0-1.41-.75,2.44,2.44,0,0,0-.51,0,2.71,2.71,0,0,0-1.93.8,2.75,2.75,0,0,0-.74,2.45,2.8,2.8,0,0,0,.76,1.4L59.58,74.65a2.3,2.3,0,1,1-3.25,3.25L47,68.61a3,3,0,0,0-1.53.79v0l-1.88,1.89a.12.12,0,0,0,0,.14s0,0,0,.06l1.83,1.83L57,85c.19.19.37.37.56.54a25.28,25.28,0,0,0,3.28,2.62h0a21.71,21.71,0,0,0,9.47,3.62l4.1,2.4,8.15,8.14a1.26,1.26,0,0,0,1.75,0l21.52-21.53A1.21,1.21,0,0,0,106.25,79.88Zm-46.95-51,.13-.1c-.26-.2-.51-.39-.78-.58h0a21.77,21.77,0,0,0-9.47-3.61l-4.1-2.4L36.93,14a1.26,1.26,0,0,0-1.76,0L13.65,35.54a1.22,1.22,0,0,0,0,1.75l8.14,8.15,2.7,3.8A20,20,0,0,0,25,52.78c.6-.73,1.23-1.43,1.91-2.11l8.41-8.42a14.1,14.1,0,0,1-.08-3.81c1.09-4.88,4.94-5.33,5-5.33h.15c.4,0,1.52-.14,2-.14a7.26,7.26,0,0,1,1.86.26,7.3,7.3,0,0,1,11.64-3.9,5.84,5.84,0,0,1,.6.53l1.29,1.29A7,7,0,0,1,59.3,28.84ZM55.07,90.2c-.32-.28-.66-.55-1-.85s-.44-.42-.67-.66L40,75.27a4.83,4.83,0,0,1-1-1.55,3.1,3.1,0,0,1-.18-.54A4.74,4.74,0,0,1,40,68.55l1.84-1.85s0,0,0,0a8.76,8.76,0,0,1,1.33-1L33.55,56a7.42,7.42,0,0,1-1.94-3.49l-1.42,1.43a25.54,25.54,0,0,0-3.87,4.93,21.38,21.38,0,0,0-2.92,8.39L21,71.34l-8.14,8.14a1.24,1.24,0,0,0-.37.89,1.21,1.21,0,0,0,.37.87l21.52,21.53a1.27,1.27,0,0,0,1.76,0l8.14-8.14,3.8-2.7A20.58,20.58,0,0,0,55.07,90.2Z" transform="translate(-7.91 0.19)"/></svg>