<?xml version="1.0" encoding="UTF-8" standalone="no"?>
<!DOCTYPE svg PUBLIC "-//W3C//DTD SVG 1.1//EN"
 "http://www.w3.org/Graphics/SVG/1.1/DTD/svg11.dtd">
<!-- Generated by graphviz version 2.40.1 (20161225.0304)
 -->
<!-- Title: controllers_diagram Pages: 1 -->
<svg width="886pt" height="915pt"
 viewBox="0.00 0.00 885.93 915.00" xmlns="http://www.w3.org/2000/svg" xmlns:xlink="http://www.w3.org/1999/xlink">
<g id="graph0" class="graph" transform="scale(1 1) rotate(0) translate(4 911)">
<title>controllers_diagram</title>
<polygon fill="transparent" stroke="transparent" points="-4,4 -4,-911 881.9316,-911 881.9316,4 -4,4"/>
<!-- _diagram_info -->
<g id="node1" class="node">
<title>_diagram_info</title>
<text text-anchor="start" x="568" y="-398.6" font-family="Times,serif" font-size="13.00" fill="#000000">Controllers diagram</text>
<text text-anchor="start" x="568" y="-385.6" font-family="Times,serif" font-size="13.00" fill="#000000">Date: Oct 12 2018 &#45; 16:00</text>
<text text-anchor="start" x="568" y="-372.6" font-family="Times,serif" font-size="13.00" fill="#000000">Migration version: 20181010033844</text>
<text text-anchor="start" x="568" y="-359.6" font-family="Times,serif" font-size="13.00" fill="#000000">Generated by RailRoady 1.5.3</text>
<text text-anchor="start" x="568" y="-346.6" font-family="Times,serif" font-size="13.00" fill="#000000">http://railroady.prestonlee.com</text>
</g>
<!-- ApplicationController -->
<g id="node2" class="node">
<title>ApplicationController</title>
<path fill="none" stroke="#000000" d="M692,-20.5C692,-20.5 865.9316,-20.5 865.9316,-20.5 871.9316,-20.5 877.9316,-26.5 877.9316,-32.5 877.9316,-32.5 877.9316,-112.5 877.9316,-112.5 877.9316,-118.5 871.9316,-124.5 865.9316,-124.5 865.9316,-124.5 692,-124.5 692,-124.5 686,-124.5 680,-118.5 680,-112.5 680,-112.5 680,-32.5 680,-32.5 680,-26.5 686,-20.5 692,-20.5"/>
<text text-anchor="middle" x="778.9658" y="-109.3" font-family="Times,serif" font-size="14.00" fill="#000000">ApplicationController</text>
<polyline fill="none" stroke="#000000" points="680,-102.5 877.9316,-102.5 "/>
<polyline fill="none" stroke="#000000" points="680,-78.5 877.9316,-78.5 "/>
<text text-anchor="start" x="688" y="-63.3" font-family="Times,serif" font-size="14.00" fill="#000000">after_sign_in_path_for</text>
<text text-anchor="start" x="688" y="-49.3" font-family="Times,serif" font-size="14.00" fill="#000000">configure_permitted_parameters</text>
<polyline fill="none" stroke="#000000" points="680,-42.5 877.9316,-42.5 "/>
<text text-anchor="start" x="688" y="-27.3" font-family="Times,serif" font-size="14.00" fill="#000000">_layout</text>
</g>
<!-- ReversalsController -->
<g id="node3" class="node">
<title>ReversalsController</title>
<path fill="none" stroke="#000000" d="M472,-620.5C472,-620.5 575.9727,-620.5 575.9727,-620.5 581.9727,-620.5 587.9727,-626.5 587.9727,-632.5 587.9727,-632.5 587.9727,-824.5 587.9727,-824.5 587.9727,-830.5 581.9727,-836.5 575.9727,-836.5 575.9727,-836.5 472,-836.5 472,-836.5 466,-836.5 460,-830.5 460,-824.5 460,-824.5 460,-632.5 460,-632.5 460,-626.5 466,-620.5 472,-620.5"/>
<text text-anchor="middle" x="523.9863" y="-821.3" font-family="Times,serif" font-size="14.00" fill="#000000">ReversalsController</text>
<polyline fill="none" stroke="#000000" points="460,-814.5 587.9727,-814.5 "/>
<text text-anchor="start" x="468" y="-799.3" font-family="Times,serif" font-size="14.00" fill="#000000">create</text>
<text text-anchor="start" x="468" y="-785.3" font-family="Times,serif" font-size="14.00" fill="#000000">destroy</text>
<text text-anchor="start" x="468" y="-771.3" font-family="Times,serif" font-size="14.00" fill="#000000">index</text>
<text text-anchor="start" x="468" y="-757.3" font-family="Times,serif" font-size="14.00" fill="#000000">new</text>
<text text-anchor="start" x="468" y="-743.3" font-family="Times,serif" font-size="14.00" fill="#000000">show</text>
<polyline fill="none" stroke="#000000" points="460,-736.5 587.9727,-736.5 "/>
<polyline fill="none" stroke="#000000" points="460,-712.5 587.9727,-712.5 "/>
<text text-anchor="start" x="468" y="-697.3" font-family="Times,serif" font-size="14.00" fill="#000000">_layout</text>
<text text-anchor="start" x="468" y="-683.3" font-family="Times,serif" font-size="14.00" fill="#000000">check_admin</text>
<text text-anchor="start" x="468" y="-669.3" font-family="Times,serif" font-size="14.00" fill="#000000">reversal_params</text>
<text text-anchor="start" x="468" y="-655.3" font-family="Times,serif" font-size="14.00" fill="#000000">sort_column</text>
<text text-anchor="start" x="468" y="-641.3" font-family="Times,serif" font-size="14.00" fill="#000000">sort_direction</text>
<text text-anchor="start" x="468" y="-627.3" font-family="Times,serif" font-size="14.00" fill="#000000">sortable_columns</text>
</g>
<!-- ClientsController -->
<g id="node4" class="node">
<title>ClientsController</title>
<path fill="none" stroke="#000000" d="M52,-680.5C52,-680.5 141.2139,-680.5 141.2139,-680.5 147.2139,-680.5 153.2139,-686.5 153.2139,-692.5 153.2139,-692.5 153.2139,-814.5 153.2139,-814.5 153.2139,-820.5 147.2139,-826.5 141.2139,-826.5 141.2139,-826.5 52,-826.5 52,-826.5 46,-826.5 40,-820.5 40,-814.5 40,-814.5 40,-692.5 40,-692.5 40,-686.5 46,-680.5 52,-680.5"/>
<text text-anchor="middle" x="96.6069" y="-811.3" font-family="Times,serif" font-size="14.00" fill="#000000">ClientsController</text>
<polyline fill="none" stroke="#000000" points="40,-804.5 153.2139,-804.5 "/>
<text text-anchor="start" x="48" y="-789.3" font-family="Times,serif" font-size="14.00" fill="#000000">create</text>
<text text-anchor="start" x="48" y="-775.3" font-family="Times,serif" font-size="14.00" fill="#000000">edit</text>
<text text-anchor="start" x="48" y="-761.3" font-family="Times,serif" font-size="14.00" fill="#000000">info</text>
<text text-anchor="start" x="48" y="-747.3" font-family="Times,serif" font-size="14.00" fill="#000000">new</text>
<text text-anchor="start" x="48" y="-733.3" font-family="Times,serif" font-size="14.00" fill="#000000">show</text>
<polyline fill="none" stroke="#000000" points="40,-726.5 153.2139,-726.5 "/>
<polyline fill="none" stroke="#000000" points="40,-702.5 153.2139,-702.5 "/>
<text text-anchor="start" x="48" y="-687.3" font-family="Times,serif" font-size="14.00" fill="#000000">_layout</text>
</g>
<!-- InventoriesController -->
<g id="node5" class="node">
<title>InventoriesController</title>
<path fill="none" stroke="#000000" d="M32,-360.5C32,-360.5 144.5244,-360.5 144.5244,-360.5 150.5244,-360.5 156.5244,-366.5 156.5244,-372.5 156.5244,-372.5 156.5244,-606.5 156.5244,-606.5 156.5244,-612.5 150.5244,-618.5 144.5244,-618.5 144.5244,-618.5 32,-618.5 32,-618.5 26,-618.5 20,-612.5 20,-606.5 20,-606.5 20,-372.5 20,-372.5 20,-366.5 26,-360.5 32,-360.5"/>
<text text-anchor="middle" x="88.2622" y="-603.3" font-family="Times,serif" font-size="14.00" fill="#000000">InventoriesController</text>
<polyline fill="none" stroke="#000000" points="20,-596.5 156.5244,-596.5 "/>
<text text-anchor="start" x="28" y="-581.3" font-family="Times,serif" font-size="14.00" fill="#000000">create</text>
<text text-anchor="start" x="28" y="-567.3" font-family="Times,serif" font-size="14.00" fill="#000000">destroy</text>
<text text-anchor="start" x="28" y="-553.3" font-family="Times,serif" font-size="14.00" fill="#000000">edit</text>
<text text-anchor="start" x="28" y="-539.3" font-family="Times,serif" font-size="14.00" fill="#000000">index</text>
<text text-anchor="start" x="28" y="-525.3" font-family="Times,serif" font-size="14.00" fill="#000000">new</text>
<text text-anchor="start" x="28" y="-511.3" font-family="Times,serif" font-size="14.00" fill="#000000">show</text>
<text text-anchor="start" x="28" y="-497.3" font-family="Times,serif" font-size="14.00" fill="#000000">update</text>
<polyline fill="none" stroke="#000000" points="20,-490.5 156.5244,-490.5 "/>
<polyline fill="none" stroke="#000000" points="20,-466.5 156.5244,-466.5 "/>
<text text-anchor="start" x="28" y="-451.3" font-family="Times,serif" font-size="14.00" fill="#000000">_layout</text>
<text text-anchor="start" x="28" y="-437.3" font-family="Times,serif" font-size="14.00" fill="#000000">check_admin</text>
<text text-anchor="start" x="28" y="-423.3" font-family="Times,serif" font-size="14.00" fill="#000000">inventory_params</text>
<text text-anchor="start" x="28" y="-409.3" font-family="Times,serif" font-size="14.00" fill="#000000">search_params</text>
<text text-anchor="start" x="28" y="-395.3" font-family="Times,serif" font-size="14.00" fill="#000000">sort_column</text>
<text text-anchor="start" x="28" y="-381.3" font-family="Times,serif" font-size="14.00" fill="#000000">sort_direction</text>
<text text-anchor="start" x="28" y="-367.3" font-family="Times,serif" font-size="14.00" fill="#000000">sortable_columns</text>
</g>
<!-- UsersController -->
<g id="node6" class="node">
<title>UsersController</title>
<path fill="none" stroke="#000000" d="M632,-620.5C632,-620.5 729.7314,-620.5 729.7314,-620.5 735.7314,-620.5 741.7314,-626.5 741.7314,-632.5 741.7314,-632.5 741.7314,-894.5 741.7314,-894.5 741.7314,-900.5 735.7314,-906.5 729.7314,-906.5 729.7314,-906.5 632,-906.5 632,-906.5 626,-906.5 620,-900.5 620,-894.5 620,-894.5 620,-632.5 620,-632.5 620,-626.5 626,-620.5 632,-620.5"/>
<text text-anchor="middle" x="680.8657" y="-891.3" font-family="Times,serif" font-size="14.00" fill="#000000">UsersController</text>
<polyline fill="none" stroke="#000000" points="620,-884.5 741.7314,-884.5 "/>
<text text-anchor="start" x="628" y="-869.3" font-family="Times,serif" font-size="14.00" fill="#000000">update</text>
<text text-anchor="start" x="628" y="-855.3" font-family="Times,serif" font-size="14.00" fill="#000000">edit</text>
<text text-anchor="start" x="628" y="-841.3" font-family="Times,serif" font-size="14.00" fill="#000000">index</text>
<text text-anchor="start" x="628" y="-827.3" font-family="Times,serif" font-size="14.00" fill="#000000">new</text>
<text text-anchor="start" x="628" y="-813.3" font-family="Times,serif" font-size="14.00" fill="#000000">show</text>
<text text-anchor="start" x="628" y="-799.3" font-family="Times,serif" font-size="14.00" fill="#000000">toggle_admin</text>
<text text-anchor="start" x="628" y="-785.3" font-family="Times,serif" font-size="14.00" fill="#000000">toggle_deactivated</text>
<text text-anchor="start" x="628" y="-771.3" font-family="Times,serif" font-size="14.00" fill="#000000">create</text>
<polyline fill="none" stroke="#000000" points="620,-764.5 741.7314,-764.5 "/>
<polyline fill="none" stroke="#000000" points="620,-740.5 741.7314,-740.5 "/>
<text text-anchor="start" x="628" y="-725.3" font-family="Times,serif" font-size="14.00" fill="#000000">user_params</text>
<text text-anchor="start" x="628" y="-711.3" font-family="Times,serif" font-size="14.00" fill="#000000">check_admin</text>
<text text-anchor="start" x="628" y="-697.3" font-family="Times,serif" font-size="14.00" fill="#000000">search_params</text>
<text text-anchor="start" x="628" y="-683.3" font-family="Times,serif" font-size="14.00" fill="#000000">set_user</text>
<text text-anchor="start" x="628" y="-669.3" font-family="Times,serif" font-size="14.00" fill="#000000">sort_column</text>
<text text-anchor="start" x="628" y="-655.3" font-family="Times,serif" font-size="14.00" fill="#000000">sort_direction</text>
<text text-anchor="start" x="628" y="-641.3" font-family="Times,serif" font-size="14.00" fill="#000000">sortable_columns</text>
<text text-anchor="start" x="628" y="-627.3" font-family="Times,serif" font-size="14.00" fill="#000000">_layout</text>
</g>
<!-- WelcomeController -->
<g id="node7" class="node">
<title>WelcomeController</title>
<path fill="none" stroke="#000000" d="M32,-20.5C32,-20.5 134.0654,-20.5 134.0654,-20.5 140.0654,-20.5 146.0654,-26.5 146.0654,-32.5 146.0654,-32.5 146.0654,-98.5 146.0654,-98.5 146.0654,-104.5 140.0654,-110.5 134.0654,-110.5 134.0654,-110.5 32,-110.5 32,-110.5 26,-110.5 20,-104.5 20,-98.5 20,-98.5 20,-32.5 20,-32.5 20,-26.5 26,-20.5 32,-20.5"/>
<text text-anchor="middle" x="83.0327" y="-95.3" font-family="Times,serif" font-size="14.00" fill="#000000">WelcomeController</text>
<polyline fill="none" stroke="#000000" points="20,-88.5 146.0654,-88.5 "/>
<text text-anchor="start" x="28" y="-73.3" font-family="Times,serif" font-size="14.00" fill="#000000">index</text>
<polyline fill="none" stroke="#000000" points="20,-66.5 146.0654,-66.5 "/>
<polyline fill="none" stroke="#000000" points="20,-42.5 146.0654,-42.5 "/>
<text text-anchor="start" x="28" y="-27.3" font-family="Times,serif" font-size="14.00" fill="#000000">_layout</text>
</g>
<!-- HomeController -->
<g id="node8" class="node">
<title>HomeController</title>
<path fill="none" stroke="#000000" d="M12,-220.5C12,-220.5 95.7588,-220.5 95.7588,-220.5 101.7588,-220.5 107.7588,-226.5 107.7588,-232.5 107.7588,-232.5 107.7588,-312.5 107.7588,-312.5 107.7588,-318.5 101.7588,-324.5 95.7588,-324.5 95.7588,-324.5 12,-324.5 12,-324.5 6,-324.5 0,-318.5 0,-312.5 0,-312.5 0,-232.5 0,-232.5 0,-226.5 6,-220.5 12,-220.5"/>
<text text-anchor="middle" x="53.8794" y="-309.3" font-family="Times,serif" font-size="14.00" fill="#000000">HomeController</text>
<polyline fill="none" stroke="#000000" points="0,-302.5 107.7588,-302.5 "/>
<text text-anchor="start" x="8" y="-287.3" font-family="Times,serif" font-size="14.00" fill="#000000">admin</text>
<text text-anchor="start" x="8" y="-273.3" font-family="Times,serif" font-size="14.00" fill="#000000">kitserials</text>
<polyline fill="none" stroke="#000000" points="0,-266.5 107.7588,-266.5 "/>
<polyline fill="none" stroke="#000000" points="0,-242.5 107.7588,-242.5 "/>
<text text-anchor="start" x="8" y="-227.3" font-family="Times,serif" font-size="14.00" fill="#000000">_layout</text>
</g>
<!-- Registrations::OmniauthCallbacksController -->
<g id="node9" class="node">
<title>Registrations::OmniauthCallbacksController</title>
<path fill="none" stroke="#000000" d="M152,-140.5C152,-140.5 394.4072,-140.5 394.4072,-140.5 400.4072,-140.5 406.4072,-146.5 406.4072,-152.5 406.4072,-152.5 406.4072,-230.5 406.4072,-230.5 406.4072,-236.5 400.4072,-242.5 394.4072,-242.5 394.4072,-242.5 152,-242.5 152,-242.5 146,-242.5 140,-236.5 140,-230.5 140,-230.5 140,-152.5 140,-152.5 140,-146.5 146,-140.5 152,-140.5"/>
<text text-anchor="middle" x="273.2036" y="-227.3" font-family="Times,serif" font-size="14.00" fill="#000000">Registrations::OmniauthCallbacksController</text>
<polyline fill="none" stroke="#000000" points="140,-220.5 406.4072,-220.5 "/>
<text text-anchor="start" x="148" y="-205.3" font-family="Times,serif" font-size="14.00" fill="#000000">failure</text>
<text text-anchor="start" x="148" y="-191.3" font-family="Times,serif" font-size="14.00" fill="#000000">passthru</text>
<polyline fill="none" stroke="#000000" points="140,-184.5 406.4072,-184.5 "/>
<text text-anchor="start" x="148" y="-169.3" font-family="Times,serif" font-size="14.00" fill="#000000">after_omniauth_failure_path_for</text>
<polyline fill="none" stroke="#000000" points="140,-162.5 406.4072,-162.5 "/>
<text text-anchor="start" x="148" y="-147.3" font-family="Times,serif" font-size="14.00" fill="#000000">_layout</text>
</g>
<!-- Registrations::PasswordsController -->
<g id="node10" class="node">
<title>Registrations::PasswordsController</title>
<path fill="none" stroke="#000000" d="M212,-280.5C212,-280.5 500.2627,-280.5 500.2627,-280.5 506.2627,-280.5 512.2627,-286.5 512.2627,-292.5 512.2627,-292.5 512.2627,-412.5 512.2627,-412.5 512.2627,-418.5 506.2627,-424.5 500.2627,-424.5 500.2627,-424.5 212,-424.5 212,-424.5 206,-424.5 200,-418.5 200,-412.5 200,-412.5 200,-292.5 200,-292.5 200,-286.5 206,-280.5 212,-280.5"/>
<text text-anchor="middle" x="356.1313" y="-409.3" font-family="Times,serif" font-size="14.00" fill="#000000">Registrations::PasswordsController</text>
<polyline fill="none" stroke="#000000" points="200,-402.5 512.2627,-402.5 "/>
<text text-anchor="start" x="208" y="-387.3" font-family="Times,serif" font-size="14.00" fill="#000000">create</text>
<text text-anchor="start" x="208" y="-373.3" font-family="Times,serif" font-size="14.00" fill="#000000">edit</text>
<text text-anchor="start" x="208" y="-359.3" font-family="Times,serif" font-size="14.00" fill="#000000">new</text>
<text text-anchor="start" x="208" y="-345.3" font-family="Times,serif" font-size="14.00" fill="#000000">update</text>
<polyline fill="none" stroke="#000000" points="200,-338.5 512.2627,-338.5 "/>
<text text-anchor="start" x="208" y="-323.3" font-family="Times,serif" font-size="14.00" fill="#000000">after_resetting_password_path_for</text>
<text text-anchor="start" x="208" y="-309.3" font-family="Times,serif" font-size="14.00" fill="#000000">after_sending_reset_password_instructions_path_for</text>
<polyline fill="none" stroke="#000000" points="200,-302.5 512.2627,-302.5 "/>
<text text-anchor="start" x="208" y="-287.3" font-family="Times,serif" font-size="14.00" fill="#000000">_layout</text>
</g>
<!-- Registrations::SessionsController -->
<g id="node11" class="node">
<title>Registrations::SessionsController</title>
<path fill="none" stroke="#000000" d="M452,-.5C452,-.5 631.4414,-.5 631.4414,-.5 637.4414,-.5 643.4414,-6.5 643.4414,-12.5 643.4414,-12.5 643.4414,-104.5 643.4414,-104.5 643.4414,-110.5 637.4414,-116.5 631.4414,-116.5 631.4414,-116.5 452,-116.5 452,-116.5 446,-116.5 440,-110.5 440,-104.5 440,-104.5 440,-12.5 440,-12.5 440,-6.5 446,-.5 452,-.5"/>
<text text-anchor="middle" x="541.7207" y="-101.3" font-family="Times,serif" font-size="14.00" fill="#000000">Registrations::SessionsController</text>
<polyline fill="none" stroke="#000000" points="440,-94.5 643.4414,-94.5 "/>
<text text-anchor="start" x="448" y="-79.3" font-family="Times,serif" font-size="14.00" fill="#000000">create</text>
<text text-anchor="start" x="448" y="-65.3" font-family="Times,serif" font-size="14.00" fill="#000000">destroy</text>
<text text-anchor="start" x="448" y="-51.3" font-family="Times,serif" font-size="14.00" fill="#000000">new</text>
<polyline fill="none" stroke="#000000" points="440,-44.5 643.4414,-44.5 "/>
<text text-anchor="start" x="448" y="-29.3" font-family="Times,serif" font-size="14.00" fill="#000000">configure_sign_in_params</text>
<polyline fill="none" stroke="#000000" points="440,-22.5 643.4414,-22.5 "/>
<text text-anchor="start" x="448" y="-7.3" font-family="Times,serif" font-size="14.00" fill="#000000">_layout</text>
</g>
<!-- Registrations::UnlocksController -->
<g id="node12" class="node">
<title>Registrations::UnlocksController</title>
<path fill="none" stroke="#000000" d="M572,-160.5C572,-160.5 812.0557,-160.5 812.0557,-160.5 818.0557,-160.5 824.0557,-166.5 824.0557,-172.5 824.0557,-172.5 824.0557,-294.5 824.0557,-294.5 824.0557,-300.5 818.0557,-306.5 812.0557,-306.5 812.0557,-306.5 572,-306.5 572,-306.5 566,-306.5 560,-300.5 560,-294.5 560,-294.5 560,-172.5 560,-172.5 560,-166.5 566,-160.5 572,-160.5"/>
<text text-anchor="middle" x="692.0278" y="-291.3" font-family="Times,serif" font-size="14.00" fill="#000000">Registrations::UnlocksController</text>
<polyline fill="none" stroke="#000000" points="560,-284.5 824.0557,-284.5 "/>
<text text-anchor="start" x="568" y="-269.3" font-family="Times,serif" font-size="14.00" fill="#000000">after_sending_unlock_instructions_path_for</text>
<text text-anchor="start" x="568" y="-255.3" font-family="Times,serif" font-size="14.00" fill="#000000">after_unlock_path_for</text>
<text text-anchor="start" x="568" y="-241.3" font-family="Times,serif" font-size="14.00" fill="#000000">create</text>
<text text-anchor="start" x="568" y="-227.3" font-family="Times,serif" font-size="14.00" fill="#000000">new</text>
<text text-anchor="start" x="568" y="-213.3" font-family="Times,serif" font-size="14.00" fill="#000000">show</text>
<polyline fill="none" stroke="#000000" points="560,-206.5 824.0557,-206.5 "/>
<polyline fill="none" stroke="#000000" points="560,-182.5 824.0557,-182.5 "/>
<text text-anchor="start" x="568" y="-167.3" font-family="Times,serif" font-size="14.00" fill="#000000">_layout</text>
</g>
<!-- Registrations::ConfirmationsController -->
<g id="node13" class="node">
<title>Registrations::ConfirmationsController</title>
<path fill="none" stroke="#000000" d="M472,-460.5C472,-460.5 756.373,-460.5 756.373,-460.5 762.373,-460.5 768.373,-466.5 768.373,-472.5 768.373,-472.5 768.373,-578.5 768.373,-578.5 768.373,-584.5 762.373,-590.5 756.373,-590.5 756.373,-590.5 472,-590.5 472,-590.5 466,-590.5 460,-584.5 460,-578.5 460,-578.5 460,-472.5 460,-472.5 460,-466.5 466,-460.5 472,-460.5"/>
<text text-anchor="middle" x="614.1865" y="-575.3" font-family="Times,serif" font-size="14.00" fill="#000000">Registrations::ConfirmationsController</text>
<polyline fill="none" stroke="#000000" points="460,-568.5 768.373,-568.5 "/>
<text text-anchor="start" x="468" y="-553.3" font-family="Times,serif" font-size="14.00" fill="#000000">create</text>
<text text-anchor="start" x="468" y="-539.3" font-family="Times,serif" font-size="14.00" fill="#000000">new</text>
<text text-anchor="start" x="468" y="-525.3" font-family="Times,serif" font-size="14.00" fill="#000000">show</text>
<polyline fill="none" stroke="#000000" points="460,-518.5 768.373,-518.5 "/>
<text text-anchor="start" x="468" y="-503.3" font-family="Times,serif" font-size="14.00" fill="#000000">after_confirmation_path_for</text>
<text text-anchor="start" x="468" y="-489.3" font-family="Times,serif" font-size="14.00" fill="#000000">after_resending_confirmation_instructions_path_for</text>
<polyline fill="none" stroke="#000000" points="460,-482.5 768.373,-482.5 "/>
<text text-anchor="start" x="468" y="-467.3" font-family="Times,serif" font-size="14.00" fill="#000000">_layout</text>
</g>
<!-- Registrations::RegistrationsController -->
<g id="node14" class="node">
<title>Registrations::RegistrationsController</title>
<path fill="none" stroke="#000000" d="M212,-520.5C212,-520.5 417.0898,-520.5 417.0898,-520.5 423.0898,-520.5 429.0898,-526.5 429.0898,-532.5 429.0898,-532.5 429.0898,-694.5 429.0898,-694.5 429.0898,-700.5 423.0898,-706.5 417.0898,-706.5 417.0898,-706.5 212,-706.5 212,-706.5 206,-706.5 200,-700.5 200,-694.5 200,-694.5 200,-532.5 200,-532.5 200,-526.5 206,-520.5 212,-520.5"/>
<text text-anchor="middle" x="314.5449" y="-691.3" font-family="Times,serif" font-size="14.00" fill="#000000">Registrations::RegistrationsController</text>
<polyline fill="none" stroke="#000000" points="200,-684.5 429.0898,-684.5 "/>
<text text-anchor="start" x="208" y="-669.3" font-family="Times,serif" font-size="14.00" fill="#000000">cancel</text>
<text text-anchor="start" x="208" y="-655.3" font-family="Times,serif" font-size="14.00" fill="#000000">create</text>
<text text-anchor="start" x="208" y="-641.3" font-family="Times,serif" font-size="14.00" fill="#000000">edit</text>
<text text-anchor="start" x="208" y="-627.3" font-family="Times,serif" font-size="14.00" fill="#000000">new</text>
<text text-anchor="start" x="208" y="-613.3" font-family="Times,serif" font-size="14.00" fill="#000000">update</text>
<polyline fill="none" stroke="#000000" points="200,-606.5 429.0898,-606.5 "/>
<text text-anchor="start" x="208" y="-591.3" font-family="Times,serif" font-size="14.00" fill="#000000">after_inactive_sign_up_path_for</text>
<text text-anchor="start" x="208" y="-577.3" font-family="Times,serif" font-size="14.00" fill="#000000">after_sign_up_path_for</text>
<text text-anchor="start" x="208" y="-563.3" font-family="Times,serif" font-size="14.00" fill="#000000">configure_account_update_params</text>
<text text-anchor="start" x="208" y="-549.3" font-family="Times,serif" font-size="14.00" fill="#000000">configure_sign_up_params</text>
<polyline fill="none" stroke="#000000" points="200,-542.5 429.0898,-542.5 "/>
<text text-anchor="start" x="208" y="-527.3" font-family="Times,serif" font-size="14.00" fill="#000000">_layout</text>
</g>
</g>
</svg>
