<?xml version="1.0" encoding="UTF-8" standalone="no"?>
<!DOCTYPE svg PUBLIC "-//W3C//DTD SVG 1.1//EN"
 "http://www.w3.org/Graphics/SVG/1.1/DTD/svg11.dtd">
<!-- Generated by graphviz version 2.40.1 (20161225.0304)
 -->
<!-- Title: models_diagram Pages: 1 -->
<svg width="560pt" height="297pt"
 viewBox="0.00 0.00 560.08 297.00" xmlns="http://www.w3.org/2000/svg" xmlns:xlink="http://www.w3.org/1999/xlink">
<g id="graph0" class="graph" transform="scale(1 1) rotate(0) translate(4 293)">
<title>models_diagram</title>
<polygon fill="transparent" stroke="transparent" points="-4,4 -4,-293 556.0835,-293 556.0835,4 -4,4"/>
<!-- _diagram_info -->
<g id="node1" class="node">
<title>_diagram_info</title>
<text text-anchor="start" x="8" y="-274.6" font-family="Times,serif" font-size="13.00" fill="#000000">Models diagram</text>
<text text-anchor="start" x="8" y="-261.6" font-family="Times,serif" font-size="13.00" fill="#000000">Date: Oct 12 2018 &#45; 16:00</text>
<text text-anchor="start" x="8" y="-248.6" font-family="Times,serif" font-size="13.00" fill="#000000">Migration version: 20181010033844</text>
<text text-anchor="start" x="8" y="-235.6" font-family="Times,serif" font-size="13.00" fill="#000000">Generated by RailRoady 1.5.3</text>
<text text-anchor="start" x="8" y="-222.6" font-family="Times,serif" font-size="13.00" fill="#000000">http://railroady.prestonlee.com</text>
</g>
<!-- Inventory -->
<g id="node2" class="node">
<title>Inventory</title>
<ellipse fill="none" stroke="#000000" cx="252.6877" cy="-162" rx="44.475" ry="18"/>
<text text-anchor="middle" x="252.6877" y="-157.8" font-family="Times,serif" font-size="14.00" fill="#000000">Inventory</text>
</g>
<!-- Client -->
<g id="node4" class="node">
<title>Client</title>
<ellipse fill="none" stroke="#000000" cx="252.6877" cy="-90" rx="31.948" ry="18"/>
<text text-anchor="middle" x="252.6877" y="-85.8" font-family="Times,serif" font-size="14.00" fill="#000000">Client</text>
</g>
<!-- Inventory&#45;&gt;Client -->
<g id="edge1" class="edge">
<title>Inventory&#45;&gt;Client</title>
<path fill="none" stroke="#9abb09" d="M246.1598,-135.686C245.8621,-129.3372 245.8637,-122.5542 246.1647,-116.2102"/>
<ellipse fill="none" stroke="#9abb09" cx="246.4533" cy="-139.8413" rx="4" ry="4"/>
<ellipse fill="#9abb09" stroke="#9abb09" cx="246.4739" cy="-111.9031" rx="4" ry="4"/>
</g>
<!-- ClientConfidential -->
<g id="node3" class="node">
<title>ClientConfidential</title>
<ellipse fill="none" stroke="#000000" cx="252.6877" cy="-18" rx="75.3966" ry="18"/>
<text text-anchor="middle" x="252.6877" y="-13.8" font-family="Times,serif" font-size="14.00" fill="#000000">ClientConfidential</text>
</g>
<!-- Client&#45;&gt;Inventory -->
<g id="edge2" class="edge">
<title>Client&#45;&gt;Inventory</title>
<path fill="none" stroke="#1955af" d="M259.2005,-115.9941C259.4797,-121.742 259.5125,-127.8594 259.2988,-133.6941"/>
<ellipse fill="none" stroke="#1955af" cx="258.9041" cy="-111.903" rx="4" ry="4"/>
<polygon fill="#1955af" stroke="#1955af" points="259.2886,-133.8524 254.1496,-143.5395 258.9644,-138.8419 258.6401,-143.8314 258.6401,-143.8314 258.6401,-143.8314 258.9644,-138.8419 263.1307,-144.1232 259.2886,-133.8524 259.2886,-133.8524"/>
</g>
<!-- Client&#45;&gt;ClientConfidential -->
<g id="edge3" class="edge">
<title>Client&#45;&gt;ClientConfidential</title>
<path fill="none" stroke="#d9d309" d="M252.6877,-63.8144C252.6877,-57.5677 252.6877,-50.894 252.6877,-44.6276"/>
<ellipse fill="none" stroke="#d9d309" cx="252.6878" cy="-67.8314" rx="4" ry="4"/>
<ellipse fill="#d9d309" stroke="#d9d309" cx="252.6878" cy="-40.4133" rx="4" ry="4"/>
</g>
<!-- Reversal -->
<g id="node5" class="node">
<title>Reversal</title>
<ellipse fill="none" stroke="#000000" cx="338.6877" cy="-252.5" rx="41.092" ry="18"/>
<text text-anchor="middle" x="338.6877" y="-248.3" font-family="Times,serif" font-size="14.00" fill="#000000">Reversal</text>
</g>
<!-- ApplicationRecord -->
<g id="node6" class="node">
<title>ApplicationRecord</title>
<ellipse fill="none" stroke="#000000" cx="474.6877" cy="-252.5" rx="77.2916" ry="18"/>
<text text-anchor="middle" x="474.6877" y="-248.3" font-family="Times,serif" font-size="14.00" fill="#000000">ApplicationRecord</text>
</g>
<!-- User -->
<g id="node7" class="node">
<title>User</title>
<ellipse fill="none" stroke="#000000" cx="252.6877" cy="-252.5" rx="27" ry="18"/>
<text text-anchor="middle" x="252.6877" y="-248.3" font-family="Times,serif" font-size="14.00" fill="#000000">User</text>
</g>
<!-- User&#45;&gt;Inventory -->
<g id="edge4" class="edge">
<title>User&#45;&gt;Inventory</title>
<path fill="none" stroke="#4d7d4e" d="M252.6877,-225.9687C252.6877,-214.8402 252.6877,-201.878 252.6877,-190.5429"/>
<ellipse fill="none" stroke="#4d7d4e" cx="252.6878" cy="-230.186" rx="4" ry="4"/>
<polygon fill="#4d7d4e" stroke="#4d7d4e" points="252.6878,-190.2868 257.1877,-180.2867 252.6878,-185.2868 252.6877,-180.2868 252.6877,-180.2868 252.6877,-180.2868 252.6878,-185.2868 248.1877,-180.2868 252.6878,-190.2868 252.6878,-190.2868"/>
</g>
</g>
</svg>
