<?xml version="1.0" encoding="UTF-8" standalone="no"?>
<!DOCTYPE svg PUBLIC "-//W3C//DTD SVG 1.1//EN"
 "http://www.w3.org/Graphics/SVG/1.1/DTD/svg11.dtd">
<!-- Generated by graphviz version 2.40.1 (20161225.0304)
 -->
<!-- Title: models_diagram Pages: 1 -->
<svg width="990pt" height="898pt"
 viewBox="0.00 0.00 990.08 898.00" xmlns="http://www.w3.org/2000/svg" xmlns:xlink="http://www.w3.org/1999/xlink">
<g id="graph0" class="graph" transform="scale(1 1) rotate(0) translate(4 894)">
<title>models_diagram</title>
<polygon fill="transparent" stroke="transparent" points="-4,4 -4,-894 986.0835,-894 986.0835,4 -4,4"/>
<!-- _diagram_info -->
<g id="node1" class="node">
<title>_diagram_info</title>
<text text-anchor="start" x="8" y="-735.6" font-family="Times,serif" font-size="13.00" fill="#000000">Models diagram</text>
<text text-anchor="start" x="8" y="-722.6" font-family="Times,serif" font-size="13.00" fill="#000000">Date: Oct 12 2018 &#45; 16:00</text>
<text text-anchor="start" x="8" y="-709.6" font-family="Times,serif" font-size="13.00" fill="#000000">Migration version: 20181010033844</text>
<text text-anchor="start" x="8" y="-696.6" font-family="Times,serif" font-size="13.00" fill="#000000">Generated by RailRoady 1.5.3</text>
<text text-anchor="start" x="8" y="-683.6" font-family="Times,serif" font-size="13.00" fill="#000000">http://railroady.prestonlee.com</text>
</g>
<!-- Inventory -->
<g id="node2" class="node">
<title>Inventory</title>
<path fill="none" stroke="#000000" d="M272.8254,-344.5C272.8254,-344.5 496.55,-344.5 496.55,-344.5 502.55,-344.5 508.55,-350.5 508.55,-356.5 508.55,-356.5 508.55,-488.5 508.55,-488.5 508.55,-494.5 502.55,-500.5 496.55,-500.5 496.55,-500.5 272.8254,-500.5 272.8254,-500.5 266.8254,-500.5 260.8254,-494.5 260.8254,-488.5 260.8254,-488.5 260.8254,-356.5 260.8254,-356.5 260.8254,-350.5 266.8254,-344.5 272.8254,-344.5"/>
<text text-anchor="middle" x="384.6877" y="-485.3" font-family="Times,serif" font-size="14.00" fill="#000000">Inventory</text>
<polyline fill="none" stroke="#000000" points="260.8254,-478.5 508.55,-478.5 "/>
<text text-anchor="start" x="268.8254" y="-463.3" font-family="Times,serif" font-size="14.00" fill="#000000">updated_at :timestamp without time zone</text>
<text text-anchor="start" x="268.8254" y="-449.3" font-family="Times,serif" font-size="14.00" fill="#000000">serial_num :character varying</text>
<text text-anchor="start" x="268.8254" y="-435.3" font-family="Times,serif" font-size="14.00" fill="#000000">kit_type :character varying</text>
<text text-anchor="start" x="268.8254" y="-421.3" font-family="Times,serif" font-size="14.00" fill="#000000">user_id :bigint</text>
<text text-anchor="start" x="268.8254" y="-407.3" font-family="Times,serif" font-size="14.00" fill="#000000">client_id :bigint</text>
<text text-anchor="start" x="268.8254" y="-393.3" font-family="Times,serif" font-size="14.00" fill="#000000">expiration_date :date</text>
<text text-anchor="start" x="268.8254" y="-379.3" font-family="Times,serif" font-size="14.00" fill="#000000">distributed_date :date</text>
<text text-anchor="start" x="268.8254" y="-365.3" font-family="Times,serif" font-size="14.00" fill="#000000">created_at :timestamp without time zone</text>
<text text-anchor="start" x="268.8254" y="-351.3" font-family="Times,serif" font-size="14.00" fill="#000000">id :bigint</text>
</g>
<!-- Client -->
<g id="node4" class="node">
<title>Client</title>
<path fill="none" stroke="#000000" d="M272.8254,-165.5C272.8254,-165.5 496.55,-165.5 496.55,-165.5 502.55,-165.5 508.55,-171.5 508.55,-177.5 508.55,-177.5 508.55,-295.5 508.55,-295.5 508.55,-301.5 502.55,-307.5 496.55,-307.5 496.55,-307.5 272.8254,-307.5 272.8254,-307.5 266.8254,-307.5 260.8254,-301.5 260.8254,-295.5 260.8254,-295.5 260.8254,-177.5 260.8254,-177.5 260.8254,-171.5 266.8254,-165.5 272.8254,-165.5"/>
<text text-anchor="middle" x="384.6877" y="-292.3" font-family="Times,serif" font-size="14.00" fill="#000000">Client</text>
<polyline fill="none" stroke="#000000" points="260.8254,-285.5 508.55,-285.5 "/>
<text text-anchor="start" x="268.8254" y="-270.3" font-family="Times,serif" font-size="14.00" fill="#000000">updated_at :timestamp without time zone</text>
<text text-anchor="start" x="268.8254" y="-256.3" font-family="Times,serif" font-size="14.00" fill="#000000">city :character varying</text>
<text text-anchor="start" x="268.8254" y="-242.3" font-family="Times,serif" font-size="14.00" fill="#000000">county :character varying</text>
<text text-anchor="start" x="268.8254" y="-228.3" font-family="Times,serif" font-size="14.00" fill="#000000">first_kit :boolean</text>
<text text-anchor="start" x="268.8254" y="-214.3" font-family="Times,serif" font-size="14.00" fill="#000000">client_confidential_id :integer</text>
<text text-anchor="start" x="268.8254" y="-200.3" font-family="Times,serif" font-size="14.00" fill="#000000">user_id :bigint</text>
<text text-anchor="start" x="268.8254" y="-186.3" font-family="Times,serif" font-size="14.00" fill="#000000">created_at :timestamp without time zone</text>
<text text-anchor="start" x="268.8254" y="-172.3" font-family="Times,serif" font-size="14.00" fill="#000000">id :bigint</text>
</g>
<!-- Inventory&#45;&gt;Client -->
<g id="edge1" class="edge">
<title>Inventory&#45;&gt;Client</title>
<path fill="none" stroke="#209c68" d="M377.9541,-336.3614C377.921,-329.4317 377.9381,-322.4509 378.0055,-315.574"/>
<ellipse fill="none" stroke="#209c68" cx="377.9851" cy="-340.4278" rx="4" ry="4"/>
<ellipse fill="#209c68" stroke="#209c68" cx="378.0566" cy="-311.5579" rx="4" ry="4"/>
</g>
<!-- ClientConfidential -->
<g id="node3" class="node">
<title>ClientConfidential</title>
<path fill="none" stroke="#000000" d="M272.8254,-.5C272.8254,-.5 496.55,-.5 496.55,-.5 502.55,-.5 508.55,-6.5 508.55,-12.5 508.55,-12.5 508.55,-116.5 508.55,-116.5 508.55,-122.5 502.55,-128.5 496.55,-128.5 496.55,-128.5 272.8254,-128.5 272.8254,-128.5 266.8254,-128.5 260.8254,-122.5 260.8254,-116.5 260.8254,-116.5 260.8254,-12.5 260.8254,-12.5 260.8254,-6.5 266.8254,-.5 272.8254,-.5"/>
<text text-anchor="middle" x="384.6877" y="-113.3" font-family="Times,serif" font-size="14.00" fill="#000000">ClientConfidential</text>
<polyline fill="none" stroke="#000000" points="260.8254,-106.5 508.55,-106.5 "/>
<text text-anchor="start" x="268.8254" y="-91.3" font-family="Times,serif" font-size="14.00" fill="#000000">id :bigint</text>
<text text-anchor="start" x="268.8254" y="-77.3" font-family="Times,serif" font-size="14.00" fill="#000000">first_name :character varying</text>
<text text-anchor="start" x="268.8254" y="-63.3" font-family="Times,serif" font-size="14.00" fill="#000000">last_name :character varying</text>
<text text-anchor="start" x="268.8254" y="-49.3" font-family="Times,serif" font-size="14.00" fill="#000000">date_of_birth :date</text>
<text text-anchor="start" x="268.8254" y="-35.3" font-family="Times,serif" font-size="14.00" fill="#000000">client_id :bigint</text>
<text text-anchor="start" x="268.8254" y="-21.3" font-family="Times,serif" font-size="14.00" fill="#000000">created_at :timestamp without time zone</text>
<text text-anchor="start" x="268.8254" y="-7.3" font-family="Times,serif" font-size="14.00" fill="#000000">updated_at :timestamp without time zone</text>
</g>
<!-- Client&#45;&gt;Inventory -->
<g id="edge2" class="edge">
<title>Client&#45;&gt;Inventory</title>
<path fill="none" stroke="#37b08a" d="M391.3726,-315.8432C391.4314,-321.963 391.4504,-328.1634 391.4296,-334.3354"/>
<ellipse fill="none" stroke="#37b08a" cx="391.3185" cy="-311.5579" rx="4" ry="4"/>
<polygon fill="#37b08a" stroke="#37b08a" points="391.4291,-334.4279 386.86,-344.3966 391.3945,-339.4278 391.3599,-344.4277 391.3599,-344.4277 391.3599,-344.4277 391.3945,-339.4278 395.8597,-344.4589 391.4291,-334.4279 391.4291,-334.4279"/>
</g>
<!-- Client&#45;&gt;ClientConfidential -->
<g id="edge3" class="edge">
<title>Client&#45;&gt;ClientConfidential</title>
<path fill="none" stroke="#7b641d" d="M384.6877,-156.7833C384.6877,-150.1382 384.6877,-143.4429 384.6877,-136.8571"/>
<ellipse fill="none" stroke="#7b641d" cx="384.6878" cy="-161.0508" rx="4" ry="4"/>
<ellipse fill="#7b641d" stroke="#7b641d" cx="384.6878" cy="-132.5856" rx="4" ry="4"/>
</g>
<!-- Reversal -->
<g id="node5" class="node">
<title>Reversal</title>
<path fill="none" stroke="#000000" d="M573.8254,-642.5C573.8254,-642.5 797.55,-642.5 797.55,-642.5 803.55,-642.5 809.55,-648.5 809.55,-654.5 809.55,-654.5 809.55,-772.5 809.55,-772.5 809.55,-778.5 803.55,-784.5 797.55,-784.5 797.55,-784.5 573.8254,-784.5 573.8254,-784.5 567.8254,-784.5 561.8254,-778.5 561.8254,-772.5 561.8254,-772.5 561.8254,-654.5 561.8254,-654.5 561.8254,-648.5 567.8254,-642.5 573.8254,-642.5"/>
<text text-anchor="middle" x="685.6877" y="-769.3" font-family="Times,serif" font-size="14.00" fill="#000000">Reversal</text>
<polyline fill="none" stroke="#000000" points="561.8254,-762.5 809.55,-762.5 "/>
<text text-anchor="start" x="569.8254" y="-747.3" font-family="Times,serif" font-size="14.00" fill="#000000">updated_at :timestamp without time zone</text>
<text text-anchor="start" x="569.8254" y="-733.3" font-family="Times,serif" font-size="14.00" fill="#000000">county :character varying</text>
<text text-anchor="start" x="569.8254" y="-719.3" font-family="Times,serif" font-size="14.00" fill="#000000">town :character varying</text>
<text text-anchor="start" x="569.8254" y="-705.3" font-family="Times,serif" font-size="14.00" fill="#000000">doses :integer</text>
<text text-anchor="start" x="569.8254" y="-691.3" font-family="Times,serif" font-size="14.00" fill="#000000">kit_type :character varying</text>
<text text-anchor="start" x="569.8254" y="-677.3" font-family="Times,serif" font-size="14.00" fill="#000000">time_between :integer</text>
<text text-anchor="start" x="569.8254" y="-663.3" font-family="Times,serif" font-size="14.00" fill="#000000">created_at :timestamp without time zone</text>
<text text-anchor="start" x="569.8254" y="-649.3" font-family="Times,serif" font-size="14.00" fill="#000000">id :bigint</text>
</g>
<!-- ApplicationRecord -->
<g id="node6" class="node">
<title>ApplicationRecord</title>
<ellipse fill="none" stroke="#000000" cx="904.6877" cy="-713.5" rx="77.2916" ry="18"/>
<text text-anchor="middle" x="904.6877" y="-709.3" font-family="Times,serif" font-size="14.00" fill="#000000">ApplicationRecord</text>
</g>
<!-- User -->
<g id="node7" class="node">
<title>User</title>
<path fill="none" stroke="#000000" d="M237.053,-537.5C237.053,-537.5 532.3225,-537.5 532.3225,-537.5 538.3225,-537.5 544.3225,-543.5 544.3225,-549.5 544.3225,-549.5 544.3225,-877.5 544.3225,-877.5 544.3225,-883.5 538.3225,-889.5 532.3225,-889.5 532.3225,-889.5 237.053,-889.5 237.053,-889.5 231.053,-889.5 225.053,-883.5 225.053,-877.5 225.053,-877.5 225.053,-549.5 225.053,-549.5 225.053,-543.5 231.053,-537.5 237.053,-537.5"/>
<text text-anchor="middle" x="384.6877" y="-874.3" font-family="Times,serif" font-size="14.00" fill="#000000">User</text>
<polyline fill="none" stroke="#000000" points="225.053,-867.5 544.3225,-867.5 "/>
<text text-anchor="start" x="233.053" y="-852.3" font-family="Times,serif" font-size="14.00" fill="#000000">deactivated :boolean</text>
<text text-anchor="start" x="233.053" y="-838.3" font-family="Times,serif" font-size="14.00" fill="#000000">first_name :character varying</text>
<text text-anchor="start" x="233.053" y="-824.3" font-family="Times,serif" font-size="14.00" fill="#000000">last_name :character varying</text>
<text text-anchor="start" x="233.053" y="-810.3" font-family="Times,serif" font-size="14.00" fill="#000000">auth_token :character varying</text>
<text text-anchor="start" x="233.053" y="-796.3" font-family="Times,serif" font-size="14.00" fill="#000000">email :character varying</text>
<text text-anchor="start" x="233.053" y="-782.3" font-family="Times,serif" font-size="14.00" fill="#000000">phone :integer</text>
<text text-anchor="start" x="233.053" y="-768.3" font-family="Times,serif" font-size="14.00" fill="#000000">county :character varying</text>
<text text-anchor="start" x="233.053" y="-754.3" font-family="Times,serif" font-size="14.00" fill="#000000">address1 :character varying</text>
<text text-anchor="start" x="233.053" y="-740.3" font-family="Times,serif" font-size="14.00" fill="#000000">address2 :character varying</text>
<text text-anchor="start" x="233.053" y="-726.3" font-family="Times,serif" font-size="14.00" fill="#000000">city :character varying</text>
<text text-anchor="start" x="233.053" y="-712.3" font-family="Times,serif" font-size="14.00" fill="#000000">state :character varying</text>
<text text-anchor="start" x="233.053" y="-698.3" font-family="Times,serif" font-size="14.00" fill="#000000">zip :character varying</text>
<text text-anchor="start" x="233.053" y="-684.3" font-family="Times,serif" font-size="14.00" fill="#000000">admin :boolean</text>
<text text-anchor="start" x="233.053" y="-670.3" font-family="Times,serif" font-size="14.00" fill="#000000">contact_type :character varying</text>
<text text-anchor="start" x="233.053" y="-656.3" font-family="Times,serif" font-size="14.00" fill="#000000">date_auth :date</text>
<text text-anchor="start" x="233.053" y="-642.3" font-family="Times,serif" font-size="14.00" fill="#000000">admin_auth :date</text>
<text text-anchor="start" x="233.053" y="-628.3" font-family="Times,serif" font-size="14.00" fill="#000000">created_at :timestamp without time zone</text>
<text text-anchor="start" x="233.053" y="-614.3" font-family="Times,serif" font-size="14.00" fill="#000000">updated_at :timestamp without time zone</text>
<text text-anchor="start" x="233.053" y="-600.3" font-family="Times,serif" font-size="14.00" fill="#000000">encrypted_password :character varying</text>
<text text-anchor="start" x="233.053" y="-586.3" font-family="Times,serif" font-size="14.00" fill="#000000">reset_password_token :character varying</text>
<text text-anchor="start" x="233.053" y="-572.3" font-family="Times,serif" font-size="14.00" fill="#000000">reset_password_sent_at :timestamp without time zone</text>
<text text-anchor="start" x="233.053" y="-558.3" font-family="Times,serif" font-size="14.00" fill="#000000">remember_created_at :timestamp without time zone</text>
<text text-anchor="start" x="233.053" y="-544.3" font-family="Times,serif" font-size="14.00" fill="#000000">id :bigint</text>
</g>
<!-- User&#45;&gt;Inventory -->
<g id="edge4" class="edge">
<title>User&#45;&gt;Inventory</title>
<path fill="none" stroke="#443357" d="M384.6877,-528.8418C384.6877,-522.7436 384.6877,-516.7446 384.6877,-510.892"/>
<ellipse fill="none" stroke="#443357" cx="384.6878" cy="-533.0932" rx="4" ry="4"/>
<polygon fill="#443357" stroke="#443357" points="384.6878,-510.526 389.1877,-500.526 384.6878,-505.526 384.6877,-500.526 384.6877,-500.526 384.6877,-500.526 384.6878,-505.526 380.1877,-500.526 384.6878,-510.526 384.6878,-510.526"/>
</g>
</g>
</svg>
